<?xml version="1.0" standalone="no"?>
<!DOCTYPE svg PUBLIC "-//W3C//DTD SVG 20010904//EN"
 "http://www.w3.org/TR/2001/REC-SVG-20010904/DTD/svg10.dtd">
<svg version="1.0" xmlns="http://www.w3.org/2000/svg"
 width="827.000000pt" height="1063.000000pt" viewBox="0 0 827.000000 1063.000000"
 preserveAspectRatio="xMidYMid meet">

<g transform="translate(0.000000,1063.000000) scale(0.100000,-0.100000)"
fill="#000000" stroke="none">
<path d="M4177 9914 c-2 -3 -94 -7 -203 -10 -183 -4 -239 -11 -286 -35 -10 -5
-26 -9 -37 -9 -11 0 -39 -8 -63 -19 -24 -10 -68 -22 -98 -26 -30 -4 -70 -16
-88 -26 -19 -9 -40 -15 -47 -12 -8 2 -29 -2 -47 -10 -18 -8 -46 -19 -63 -23
-55 -14 -76 -24 -70 -35 6 -9 -30 -31 -38 -23 -10 10 -188 -50 -183 -62 8 -20
-26 -41 -92 -57 -35 -9 -69 -20 -75 -25 -7 -6 -27 -13 -45 -17 -18 -3 -36 -14
-41 -23 -5 -9 -30 -28 -55 -42 -26 -14 -46 -32 -46 -41 0 -10 -19 -24 -50 -37
-34 -14 -48 -25 -44 -35 3 -9 -18 -28 -64 -55 -47 -28 -69 -47 -68 -59 0 -10
-4 -18 -10 -18 -11 0 -82 -57 -138 -110 -19 -18 -19 -20 -3 -23 19 -4 22 -17
7 -27 -17 -10 -60 -83 -60 -100 0 -9 -20 -36 -45 -62 -25 -25 -45 -52 -45 -60
0 -13 -23 -41 -102 -124 -16 -16 -28 -36 -28 -44 0 -17 -25 -61 -49 -86 -9 -9
-23 -26 -31 -39 -8 -12 -19 -28 -25 -34 -35 -41 -115 -193 -115 -220 0 -3 -25
-42 -55 -87 -31 -44 -60 -91 -65 -105 -5 -13 -25 -48 -45 -76 -19 -29 -35 -60
-35 -69 0 -15 -24 -65 -97 -203 -28 -51 -58 -187 -44 -196 6 -3 6 -11 1 -20
-13 -20 -13 -80 0 -80 6 0 10 -9 10 -20 0 -12 7 -31 16 -45 12 -18 15 -48 14
-132 -2 -81 2 -122 16 -163 13 -41 19 -95 21 -210 4 -165 6 -193 18 -225 14
-38 14 -44 5 -76 -6 -19 -6 -35 -1 -38 5 -4 8 -25 7 -49 0 -24 5 -46 11 -50 7
-4 15 -28 18 -52 21 -183 41 -288 61 -337 8 -17 14 -36 14 -43 0 -17 51 -163
62 -177 5 -6 8 -17 7 -25 -3 -19 12 -68 21 -68 14 0 18 -51 5 -56 -7 -3 -38 6
-70 20 -32 15 -75 26 -97 26 -41 0 -107 -28 -92 -39 5 -3 10 -20 12 -37 3 -28
0 -32 -20 -32 -50 0 -62 -8 -72 -48 -6 -21 -10 -145 -10 -274 -1 -219 1 -240
22 -305 13 -38 44 -106 70 -150 60 -101 85 -154 152 -325 49 -123 111 -254
127 -263 7 -5 13 -26 13 -49 0 -36 2 -39 16 -27 15 12 16 11 10 -7 -8 -27 2
-54 20 -54 8 0 14 -3 15 -7 0 -5 2 -18 3 -30 4 -33 14 -39 31 -17 8 11 15 14
15 7 0 -7 5 -13 11 -13 6 0 9 9 6 20 -6 24 1 25 24 4 19 -18 39 -11 39 12 0
11 -6 14 -22 9 -22 -7 -21 -5 4 19 15 14 36 26 48 26 11 0 20 4 20 9 0 5 7 17
16 26 13 13 14 21 6 38 -6 12 -14 45 -17 72 -4 28 -12 56 -18 64 -13 16 -37
94 -40 130 -2 23 -27 44 -27 23 0 -17 -57 -32 -69 -18 -14 16 5 36 34 36 12 0
26 5 33 12 14 14 16 104 2 113 -16 10 -12 45 5 45 8 0 15 5 15 10 0 6 -6 10
-14 10 -16 0 -26 43 -26 111 0 28 -5 49 -11 49 -5 0 -7 5 -4 10 4 6 -1 34 -9
63 -15 50 -33 158 -41 237 -2 19 -6 55 -9 80 -29 219 -28 883 2 1224 4 47 5
92 1 98 -4 7 -5 17 -1 22 3 6 6 22 6 36 1 19 6 25 24 24 15 0 22 5 22 18 0 10
-7 18 -15 18 -9 0 -15 9 -15 25 0 26 14 33 26 13 4 -7 3 -8 -4 -4 -7 4 -12 3
-12 -2 0 -11 50 -26 58 -17 8 8 -26 75 -38 75 -11 0 -5 36 13 80 6 14 12 40
14 58 3 33 58 111 77 112 5 0 14 -7 21 -16 9 -13 18 -15 38 -8 15 5 27 12 27
17 0 4 0 23 0 43 0 28 -3 35 -17 32 -13 -2 -18 -13 -18 -37 0 -41 -15 -49 -39
-22 -17 19 -17 21 -2 36 9 9 16 23 16 30 0 8 27 31 61 51 52 32 59 41 54 61
-5 21 -3 22 20 13 15 -6 24 -6 21 -1 -3 5 2 12 11 15 14 6 14 8 -3 21 -19 14
-19 14 1 16 11 1 26 1 33 0 8 -1 30 14 49 34 26 27 33 39 23 45 -9 6 -7 10 8
14 31 10 72 63 65 83 -4 11 3 24 21 38 l27 21 -28 29 c-15 16 -23 25 -16 22
18 -11 24 8 13 38 -16 42 -3 75 30 75 25 0 27 3 28 45 0 47 -7 55 -28 30 -17
-21 -26 -19 -26 5 0 11 7 20 14 20 8 0 12 6 9 13 -3 8 -1 20 3 28 7 11 12 11
27 -3 23 -20 63 -33 63 -19 0 6 7 8 15 5 21 -8 19 -34 -2 -35 -15 0 -15 -2 3
-10 17 -9 26 -5 52 19 18 17 32 35 32 41 0 19 -28 12 -35 -8 -4 -12 -12 -18
-21 -14 -21 8 -18 69 4 82 15 9 14 10 -8 11 -23 1 -23 2 -6 11 10 6 33 9 52 6
28 -5 34 -3 34 12 0 14 6 17 25 13 14 -2 25 -11 25 -19 0 -12 2 -12 15 1 18
18 19 33 3 39 -7 3 -3 6 9 6 12 1 23 -5 26 -11 4 -10 7 -10 18 0 12 11 11 16
-5 28 -17 12 -18 14 -3 14 18 0 23 15 9 24 -5 3 -19 -6 -31 -20 -12 -14 -26
-23 -29 -19 -4 4 -1 10 6 12 6 3 12 13 12 24 0 10 4 19 9 19 12 0 41 28 41 40
0 13 -29 20 -36 8 -5 -7 -2 -8 6 -3 10 6 12 4 7 -9 -4 -10 -7 -20 -7 -23 0 -3
-7 0 -15 7 -8 7 -23 9 -32 5 -17 -6 -17 -7 -1 -19 15 -11 15 -13 -3 -24 -28
-18 -43 -5 -25 20 8 11 12 27 9 35 -3 8 0 25 7 38 10 18 20 23 39 21 23 -2 26
1 29 32 2 29 47 102 58 95 11 -8 24 -1 24 11 0 16 18 31 26 23 8 -7 -19 -47
-31 -47 -6 0 -16 -9 -23 -20 -7 -12 -17 -18 -23 -14 -7 4 -9 -3 -7 -17 2 -17
10 -25 28 -27 24 -2 24 -2 6 12 -19 15 -18 16 5 25 13 5 27 7 31 4 4 -2 5 2 2
10 -3 8 2 17 11 20 8 4 19 17 25 31 9 25 60 56 92 56 20 0 25 16 6 23 -10 4
-10 7 0 18 11 12 14 12 22 0 6 -11 15 -8 43 18 61 58 112 81 187 85 30 2 68 7
84 11 26 7 28 6 21 -16 -8 -23 -7 -23 19 -6 23 15 26 16 26 2 0 -30 29 -27 69
7 23 18 41 38 41 44 0 6 14 17 30 24 24 10 33 10 45 0 12 -10 18 -10 30 0 8 7
15 19 15 26 0 16 15 17 45 4 13 -6 15 -9 5 -9 -8 -1 -21 -10 -28 -21 -12 -19
-11 -20 15 -14 16 4 32 11 37 15 6 5 18 9 27 9 9 0 56 11 104 25 82 24 118 26
85 5 -24 -15 15 -13 53 4 19 7 70 14 119 14 59 0 96 6 118 17 29 15 33 15 50
0 17 -15 19 -14 39 11 33 42 72 63 97 51 15 -6 30 -4 52 7 27 14 33 14 45 1
12 -11 22 -12 51 -3 47 15 91 -3 83 -32 -6 -23 1 -25 26 -5 11 7 38 17 60 20
23 4 54 14 70 21 25 13 27 13 27 -5 0 -28 17 -35 29 -12 16 30 36 31 85 8 34
-16 45 -27 42 -39 -3 -15 1 -17 22 -11 15 3 30 11 34 16 4 7 12 6 23 -3 14
-12 18 -12 26 1 7 12 9 11 9 -3 0 -21 17 -32 33 -21 20 15 80 31 107 29 42 -4
32 -21 -10 -19 -22 1 -40 -2 -40 -8 0 -5 8 -9 17 -9 9 0 13 -3 10 -6 -8 -8 11
-44 23 -44 5 0 7 7 4 15 -9 21 10 19 31 -5 14 -15 22 -17 37 -9 11 6 21 9 22
7 1 -2 9 -20 19 -40 9 -21 22 -38 28 -38 6 0 8 -8 4 -20 -4 -11 -2 -20 4 -20
6 0 11 -8 11 -17 0 -18 59 -63 83 -63 7 0 23 -20 36 -44 l24 -44 33 14 c32 13
32 13 21 -11 -10 -19 -17 -22 -41 -18 -26 6 -28 4 -21 -18 10 -33 30 -47 60
-41 18 3 25 0 25 -11 0 -8 10 -17 22 -20 17 -5 19 -9 10 -20 -7 -8 -8 -17 -3
-23 5 -5 12 -20 16 -32 6 -21 4 -23 -13 -18 -23 8 -56 -20 -48 -40 3 -7 1 -16
-5 -20 -5 -3 -7 -14 -4 -25 4 -12 -2 -29 -14 -45 -12 -15 -21 -33 -21 -41 0
-9 -7 -12 -25 -7 -31 8 -34 -11 -2 -20 16 -4 27 1 41 17 l19 22 -8 -24 c-5
-16 -3 -27 6 -33 9 -6 -2 -8 -33 -4 -52 6 -53 5 -38 -25 8 -14 7 -19 -2 -19
-7 0 4 -16 26 -36 22 -20 45 -33 53 -30 9 4 13 1 10 -6 -2 -9 -18 -12 -45 -10
-32 3 -42 0 -42 -11 0 -10 7 -13 20 -10 14 4 20 0 20 -11 0 -9 5 -16 11 -16 6
0 9 -9 6 -20 -3 -10 1 -24 9 -30 11 -10 12 -5 7 26 -5 29 -3 36 8 32 8 -3 14
-15 14 -28 0 -14 8 -26 20 -30 18 -7 19 -8 3 -15 -10 -4 -18 -13 -18 -21 0 -8
-9 -14 -20 -14 -37 0 -21 -25 17 -27 25 -1 33 1 23 7 -12 7 -10 13 10 34 13
15 29 26 37 26 9 0 6 -7 -7 -20 -11 -11 -20 -26 -20 -34 0 -16 24 -38 36 -34
5 2 9 -1 9 -7 0 -5 -7 -9 -15 -8 -9 1 -21 -10 -27 -27 -9 -23 -8 -30 1 -30 6
0 17 -13 23 -29 8 -23 19 -31 48 -37 27 -5 40 -3 46 7 4 7 11 10 15 6 4 -4 13
-2 20 4 8 7 14 6 20 -2 4 -8 3 -9 -4 -5 -7 4 -12 2 -12 -3 0 -6 7 -11 15 -11
21 0 62 -43 47 -48 -23 -7 -12 -21 23 -28 31 -6 34 -9 29 -31 -6 -23 -5 -24
15 -14 11 7 21 15 21 19 0 4 8 12 19 19 16 10 20 8 30 -13 10 -23 9 -24 -14
-18 -21 5 -25 3 -22 -12 2 -11 8 -29 15 -41 17 -31 15 -34 -14 -27 -20 5 -25
3 -22 -7 6 -17 25 -19 56 -5 13 5 21 15 18 23 -4 9 5 13 31 13 30 0 34 -2 23
-15 -10 -12 -9 -16 4 -21 9 -3 16 -12 16 -19 0 -8 15 -29 33 -49 24 -25 39
-34 54 -30 16 4 21 0 25 -21 4 -20 2 -25 -9 -21 -8 3 -21 6 -29 6 -8 0 -14 7
-14 15 0 8 -7 15 -16 15 -17 0 -44 23 -44 37 0 5 -6 21 -12 36 -12 25 -17 27
-48 22 -41 -8 -80 -30 -80 -48 0 -6 -4 -18 -9 -26 -8 -12 -15 -10 -40 12 -17
14 -40 28 -51 32 -11 3 -20 12 -20 18 0 7 -15 12 -36 13 -20 0 -39 6 -44 14
-4 7 -15 10 -25 6 -13 -4 -15 -13 -10 -36 5 -22 3 -30 -8 -30 -7 0 -17 3 -20
6 -3 4 -44 7 -89 8 -46 1 -76 0 -66 -2 9 -2 19 -10 22 -18 6 -16 11 -15 -156
-16 -79 0 -117 -4 -115 -11 1 -6 -21 -14 -51 -18 -29 -4 -62 -13 -75 -22 -12
-8 -37 -18 -55 -21 -17 -4 -34 -12 -37 -17 -4 -5 -13 -9 -22 -9 -10 0 -14 6
-10 20 6 24 -5 26 -23 5 -7 -8 -20 -15 -30 -15 -9 0 -29 -9 -44 -21 -14 -11
-26 -16 -26 -11 0 6 4 12 10 14 6 2 6 9 0 18 -8 12 -11 12 -28 -3 -10 -9 -24
-17 -31 -17 -7 0 -25 -8 -39 -19 -37 -25 -79 -34 -85 -18 -3 6 -6 0 -6 -14 -1
-28 -43 -65 -61 -54 -6 4 -10 -7 -10 -24 0 -16 -4 -33 -10 -36 -6 -3 -10 -15
-10 -25 0 -26 -18 -34 -37 -18 -13 10 -17 10 -20 1 -3 -7 -16 -13 -29 -13 -30
0 -30 -7 -1 -31 18 -15 19 -18 5 -19 -9 0 -20 5 -24 11 -3 6 -15 9 -25 6 -10
-3 -20 0 -22 7 -2 6 -8 8 -12 4 -4 -4 -3 -12 1 -19 4 -7 9 -27 11 -43 2 -17 8
-35 13 -40 14 -14 12 -28 -2 -23 -7 2 -13 9 -13 15 0 14 -83 102 -96 102 -6 0
-8 4 -5 9 3 5 -5 16 -19 25 -14 9 -25 23 -25 31 0 20 -16 19 -24 -2 -4 -9 -1
-20 6 -24 9 -6 8 -10 -5 -15 -9 -3 -17 -14 -17 -23 0 -9 -7 -25 -16 -36 -13
-17 -16 -18 -24 -5 -13 19 -12 27 1 53 l11 22 -23 -22 c-17 -17 -20 -25 -11
-36 13 -15 -6 -38 -40 -50 -24 -9 -23 -24 3 -32 15 -5 18 -10 10 -18 -6 -6
-11 -20 -11 -32 1 -19 1 -19 19 3 21 24 55 29 67 10 4 -6 -3 -19 -15 -29 -22
-18 -22 -19 -3 -39 l19 -21 7 49 c3 27 3 57 0 67 -5 13 -2 16 17 13 13 -1 29
-10 36 -18 16 -21 30 -3 15 20 -7 12 -8 21 -2 25 6 3 10 16 10 29 0 27 8 36
25 30 7 -3 11 -14 8 -25 -4 -14 11 -36 57 -80 44 -44 60 -67 57 -80 -3 -10 -1
-22 4 -25 17 -10 9 -32 -13 -39 -14 -4 -18 -8 -10 -12 6 -2 12 -14 12 -24 0
-11 5 -29 10 -40 6 -10 7 -19 2 -19 -5 0 -7 -11 -4 -25 2 -14 -1 -31 -7 -39
-8 -10 -8 -16 3 -25 8 -6 12 -21 9 -31 -3 -11 0 -20 6 -20 13 0 15 -36 3 -44
-5 -3 -7 -25 -6 -50 7 -124 15 -191 24 -194 6 -2 10 -13 10 -24 0 -14 -5 -18
-15 -14 -15 5 -21 -5 -9 -17 4 -4 8 -21 10 -40 2 -29 -1 -35 -29 -45 -24 -9
-28 -15 -18 -21 10 -7 11 -13 1 -31 -10 -19 -10 -24 4 -32 9 -5 14 -13 11 -19
-10 -15 5 -10 23 7 11 12 17 13 20 5 2 -7 31 -39 63 -71 55 -55 59 -70 19 -70
-13 0 -60 46 -60 59 0 15 -6 14 -33 -4 -24 -15 -31 -70 -10 -70 19 0 55 -55
50 -75 -5 -19 15 -45 26 -34 3 3 11 -3 18 -15 9 -13 17 -17 24 -11 8 6 26 2
50 -10 50 -25 59 -25 78 3 13 17 16 19 16 5 1 -11 7 -15 20 -11 13 3 24 -2 33
-16 7 -12 16 -21 21 -21 13 0 65 -61 82 -96 8 -18 15 -44 15 -60 0 -34 -31
-103 -46 -104 -7 0 -14 -7 -17 -15 -8 -18 -49 -5 -122 38 -27 17 -56 30 -62
30 -7 0 -13 4 -13 8 0 4 -21 13 -46 20 -37 11 -46 19 -51 41 -7 33 -7 34 -44
7 -26 -18 -30 -19 -35 -4 -5 13 -9 11 -20 -10 -7 -14 -11 -31 -8 -38 2 -7 -11
-29 -30 -50 -24 -27 -42 -37 -63 -37 -66 1 -158 -11 -161 -20 -9 -26 -142 -1
-181 34 -10 9 -29 16 -43 16 -13 0 -28 3 -31 7 -4 3 -46 8 -94 9 -78 2 -92 0
-133 -23 -55 -32 -81 -62 -74 -85 4 -13 0 -18 -14 -18 -24 0 -79 60 -88 95 -5
22 -2 101 7 150 3 13 -2 21 -15 23 -13 3 -17 0 -13 -11 3 -8 0 -23 -7 -33 -10
-14 -11 -36 -5 -84 4 -36 6 -72 3 -82 -3 -9 0 -19 6 -23 14 -9 13 -62 -2 -67
-7 -3 0 -13 17 -23 17 -11 40 -29 51 -41 27 -28 77 -54 103 -54 13 0 27 -12
36 -30 9 -16 20 -30 25 -30 15 0 12 -17 -6 -39 -10 -11 -24 -17 -36 -13 -17 4
-19 1 -13 -17 5 -17 2 -21 -14 -21 -11 0 -22 -4 -25 -9 -3 -4 -19 -11 -36 -14
-27 -6 -43 -27 -20 -27 6 0 10 -4 10 -10 0 -5 -13 -10 -29 -10 -16 0 -31 -6
-35 -15 -3 -8 -12 -15 -20 -15 -22 0 -75 -33 -80 -50 -3 -11 -4 -11 -5 3 0 9
-9 17 -18 18 -10 0 -31 2 -48 3 -16 2 -41 -5 -55 -14 -14 -9 -33 -20 -42 -23
-10 -4 -18 -11 -18 -17 0 -13 13 -13 28 2 15 15 82 38 82 28 0 -12 -33 -38
-63 -49 -27 -11 -37 -31 -14 -31 8 0 7 -4 -3 -10 -21 -14 -30 -12 -30 5 0 21
-24 19 -51 -6 l-24 -20 33 5 c26 4 32 2 32 -12 0 -21 -47 -43 -80 -37 -23 5
-23 4 3 -6 36 -14 34 -27 -4 -25 -18 0 -34 -5 -36 -11 -3 -7 2 -13 11 -13 21
0 21 -16 0 -24 -23 -9 -36 -7 -29 4 3 6 1 10 -5 10 -7 0 -10 -6 -7 -14 3 -7
-11 -28 -30 -47 -36 -34 -36 -34 -12 -40 30 -7 38 -3 49 27 11 29 37 41 52 26
8 -8 4 -14 -15 -21 -17 -7 -27 -18 -27 -30 0 -11 -5 -21 -12 -23 -26 -9 3 -25
34 -19 29 6 33 11 33 38 1 18 3 34 5 36 8 6 78 37 84 37 12 0 6 -20 -6 -20
-25 -1 -57 -37 -51 -58 3 -12 10 -19 19 -15 8 3 14 0 14 -7 0 -7 8 -10 20 -7
41 11 16 -27 -43 -65 -20 -12 1 -20 22 -8 14 7 21 7 21 0 0 -5 -3 -10 -7 -10
-5 0 -17 -7 -27 -15 -15 -11 -17 -17 -7 -29 8 -10 9 -16 1 -21 -5 -3 -10 -14
-10 -24 0 -11 -10 -22 -22 -25 l-23 -7 23 -9 c13 -6 22 -18 22 -30 0 -12 5
-18 10 -15 6 4 8 10 6 14 -8 13 51 41 76 37 12 -3 25 -5 27 -5 3 -1 -10 -17
-29 -36 l-34 -35 47 0 c44 0 60 11 37 25 -6 4 -8 10 -5 15 9 15 56 -12 50 -28
-4 -11 1 -13 22 -7 23 5 26 4 16 -6 -22 -22 -14 -30 22 -23 31 5 35 4 35 -15
0 -30 -72 -64 -105 -49 -26 12 -89 -13 -99 -39 -9 -22 -6 -22 34 -5 45 20 143
23 128 4 -8 -9 -8 -16 2 -25 10 -9 13 -9 17 0 5 13 72 49 76 42 24 -43 25 -47
14 -58 -6 -6 -8 -13 -4 -17 10 -10 27 6 27 27 0 10 7 19 15 19 15 0 19 -10 16
-43 -1 -9 3 -17 8 -17 11 0 15 12 12 42 -1 9 3 19 9 23 5 3 10 -1 10 -9 0 -9
7 -16 15 -16 19 0 20 -16 1 -23 -8 -3 -12 -15 -9 -31 3 -14 9 -23 15 -20 5 3
14 1 21 -4 7 -5 30 -13 52 -16 22 -4 57 -19 77 -33 29 -20 41 -23 51 -14 16
12 73 9 88 -6 14 -14 100 1 113 19 13 18 76 58 91 58 6 0 16 -4 23 -8 16 -10
5 -42 -14 -42 -8 0 -14 -5 -14 -11 0 -6 -8 -8 -18 -5 -10 4 -27 -1 -38 -9 -16
-13 -17 -16 -4 -25 12 -8 13 -10 1 -10 -8 0 -11 -3 -8 -7 4 -3 15 1 25 10 18
16 67 13 57 -3 -3 -5 -1 -11 4 -15 12 -7 61 4 58 14 -1 3 1 7 6 9 17 5 27 1
27 -11 0 -10 19 -14 75 -13 59 0 75 3 71 13 -3 7 -1 13 3 13 5 0 11 -7 15 -15
7 -19 56 -20 56 -1 0 8 7 22 16 31 14 13 19 14 25 3 7 -10 9 -10 9 0 0 6 9 12
20 12 11 0 20 4 20 8 0 4 24 7 53 7 30 -1 58 3 67 11 17 14 65 18 118 10 18
-3 32 -1 32 4 0 6 -7 10 -16 10 -26 0 -10 24 22 34 16 5 43 26 59 47 27 37 55
51 55 29 0 -5 5 -10 11 -10 6 0 8 7 5 16 -5 12 -2 15 10 10 8 -3 19 -6 24 -6
5 0 11 -8 13 -17 4 -15 6 -14 12 5 6 19 13 22 31 18 31 -8 31 8 0 22 -18 8
-23 16 -19 31 6 24 23 28 23 6 0 -13 3 -13 19 -3 15 9 17 15 9 25 -8 9 -7 13
2 13 7 0 10 8 7 20 -3 11 -1 23 5 26 5 3 8 22 6 42 -2 30 1 38 22 49 22 11 22
13 6 19 -14 5 -15 9 -4 15 7 5 21 9 31 9 10 0 26 7 34 16 14 13 14 17 2 26
-10 7 -7 7 10 3 17 -5 22 -4 19 6 -3 8 -11 14 -19 14 -8 1 -29 10 -46 20 -32
20 -42 35 -23 35 6 0 10 7 10 15 0 15 31 21 44 8 3 -4 16 -7 27 -8 17 -1 19 3
14 22 -5 22 -4 23 14 13 11 -6 25 -20 31 -31 9 -16 14 -18 25 -9 16 14 35 5
35 -16 0 -9 11 -14 31 -14 26 0 31 -3 26 -20 -4 -17 16 -40 36 -40 12 0 15 33
5 55 -8 19 -8 28 2 40 11 13 11 19 -3 33 -16 15 -17 15 -17 -1 0 -9 -4 -17
-10 -17 -5 0 -10 6 -10 14 0 7 -16 24 -35 37 -21 14 -35 32 -35 44 0 12 -6 27
-12 33 -10 10 -10 15 1 21 9 6 10 11 2 15 -6 4 -11 14 -11 23 0 13 5 12 24 -6
17 -16 31 -21 45 -16 26 8 28 25 3 25 -25 0 -42 19 -34 39 5 14 3 14 -11 3 -9
-8 -22 -10 -28 -6 -7 4 -25 10 -41 13 -16 3 -29 10 -28 14 1 10 -76 67 -91 67
-6 0 -9 -9 -6 -20 3 -12 0 -20 -8 -20 -15 0 -28 41 -19 63 5 15 -29 34 -50 28
-5 -1 -16 1 -24 4 -11 4 -12 8 -2 20 10 12 10 15 -3 15 -9 0 -19 -4 -22 -10
-13 -21 -33 -8 -39 25 -5 25 -13 36 -30 41 -17 4 -22 11 -19 25 4 13 0 19 -11
19 -10 0 -16 9 -16 23 0 24 -27 57 -47 57 -5 0 -15 10 -22 23 -10 18 -9 28 2
50 16 31 59 67 79 67 8 0 20 21 27 48 8 26 19 50 24 53 6 4 6 15 2 25 -5 11
-10 24 -10 29 -1 6 -5 18 -10 28 -4 10 -8 38 -9 62 -1 27 -6 47 -15 50 -7 3
-11 11 -8 19 3 7 -6 44 -20 82 -40 110 -56 175 -57 229 -1 39 -5 50 -18 53
-20 4 -24 17 -7 27 6 4 8 13 5 21 -3 8 1 14 11 14 11 0 13 3 5 13 -6 6 -17 31
-25 55 -12 35 -12 42 -1 42 8 0 14 5 14 10 0 6 -6 10 -14 10 -8 0 -16 7 -20
15 -7 20 18 20 34 0 7 -8 16 -13 20 -10 10 6 60 -37 60 -52 0 -10 28 -28 42
-25 3 1 25 -16 47 -38 24 -23 47 -37 55 -34 8 3 24 1 35 -6 14 -7 21 -7 21 0
0 5 -4 10 -10 10 -11 0 -44 60 -33 60 5 0 -7 8 -25 17 -26 13 -32 21 -28 37 7
28 -17 96 -38 108 -12 7 -14 5 -10 -7 11 -29 -21 -15 -48 22 -32 41 -35 58
-12 67 20 8 30 2 89 -51 26 -24 56 -43 66 -43 10 0 19 -4 19 -10 0 -5 21 -19
48 -31 26 -12 66 -30 89 -40 79 -35 213 -59 213 -38 0 15 148 8 162 -8 16 -19
39 -16 31 4 -4 11 -3 14 5 9 21 -12 55 -16 66 -6 6 5 34 10 62 13 28 2 55 7
61 10 6 4 30 5 52 2 24 -3 41 -1 41 5 0 5 10 14 21 21 15 8 19 8 15 0 -10 -15
4 -14 38 4 16 9 36 13 45 10 8 -3 18 0 23 7 5 9 8 8 8 -6 0 -12 5 -16 16 -12
9 3 20 6 26 6 6 0 6 6 -2 15 -10 12 -9 15 6 16 11 1 33 3 50 5 20 2 37 -2 44
-11 9 -11 15 -12 25 -2 10 10 9 14 -6 25 -28 19 -23 31 11 27 28 -4 40 7 21
19 -12 8 -20 55 -10 62 5 3 12 -2 15 -10 7 -18 39 -22 49 -6 3 6 1 10 -4 10
-6 0 -11 7 -11 16 0 10 6 14 15 10 8 -3 15 -1 15 4 0 6 7 10 15 10 8 0 15 3
15 6 0 8 -27 34 -37 34 -4 0 -8 18 -7 40 0 21 -2 37 -6 35 -3 -2 -12 1 -20 6
-13 8 -11 12 7 25 19 13 20 19 11 40 -6 13 -15 24 -19 24 -5 0 -6 6 -3 13 3 8
-2 20 -11 27 -21 17 -19 27 6 33 25 7 20 32 -7 33 -35 2 -39 5 -19 14 19 9 19
9 -2 16 -13 3 -23 10 -23 15 0 13 14 11 29 -3 10 -11 14 -10 22 5 6 9 17 17
26 17 13 0 14 3 5 12 -7 7 -12 23 -12 37 0 14 -10 35 -22 48 -12 13 -16 23
-10 23 7 0 12 13 12 30 0 23 -5 31 -25 36 -27 7 -56 34 -36 34 7 0 11 8 9 18
-1 9 1 23 6 30 4 7 3 19 -4 27 -7 9 -8 15 0 20 15 9 12 25 -5 25 -18 0 -20 27
-3 32 8 3 1 19 -20 44 -35 43 -40 62 -17 70 10 4 13 13 10 25 -4 10 -3 24 2
31 4 7 8 16 8 21 0 4 3 7 8 7 4 0 11 0 16 0 5 0 13 -9 16 -20 5 -14 12 -19 24
-15 12 4 21 -3 29 -21 11 -23 11 -25 -8 -19 -14 5 -20 2 -20 -9 0 -9 7 -16 15
-16 8 0 15 -4 15 -10 0 -18 15 -10 26 14 14 31 -1 65 -36 83 -19 10 -25 20
-25 47 0 34 1 35 22 21 12 -8 29 -15 38 -15 8 0 16 -4 16 -10 1 -5 2 -16 3
-22 1 -7 8 -12 15 -10 18 4 41 -17 41 -37 0 -9 11 -38 24 -66 14 -27 22 -54
19 -59 -3 -5 0 -14 8 -20 25 -19 57 -90 54 -121 -1 -16 2 -35 6 -40 4 -6 10
-33 13 -60 11 -93 37 -270 47 -315 11 -49 42 -224 64 -365 23 -146 30 -268 29
-480 -1 -209 -8 -313 -23 -355 -11 -30 -23 -107 -30 -186 0 -8 -5 -13 -10 -10
-5 3 -14 -1 -21 -9 -10 -12 -9 -15 4 -15 9 0 16 -4 16 -10 0 -5 -9 -10 -19
-10 -11 0 -22 -6 -24 -12 -4 -9 -12 -5 -26 12 -27 33 -26 36 9 44 16 3 30 10
30 16 0 6 -4 9 -8 6 -4 -2 -14 -1 -22 4 -11 7 -7 10 13 15 15 4 27 14 27 22 0
8 5 11 10 8 11 -7 13 6 4 29 -3 9 -12 16 -20 16 -7 0 -17 6 -21 13 -10 17 -75
28 -94 17 -11 -7 -10 -10 4 -16 19 -7 25 -74 6 -74 -5 0 -7 -4 -4 -10 3 -5 1
-10 -4 -10 -6 0 -12 6 -12 13 -1 6 -5 -6 -8 -28 -5 -32 -11 -41 -28 -43 -17
-3 -23 -10 -23 -28 0 -14 -7 -27 -17 -31 -10 -4 -23 -14 -30 -22 -10 -14 -14
-11 -30 17 -10 17 -23 30 -29 28 -6 -3 -16 0 -21 5 -12 12 -50 -20 -55 -45 -2
-14 5 -21 25 -27 21 -6 27 -4 27 8 0 20 24 11 28 -11 2 -11 -4 -19 -17 -23
-26 -7 -26 -14 0 -36 20 -18 20 -19 3 -32 -24 -17 -38 -10 -55 27 -15 34 -44
57 -56 45 -4 -5 -1 -12 7 -17 12 -8 12 -10 -2 -15 -9 -4 -14 -13 -11 -21 4
-11 -2 -13 -26 -8 -27 6 -31 4 -31 -16 0 -12 -11 -36 -25 -52 -31 -37 -28 -53
11 -53 16 0 38 -5 49 -12 16 -9 17 -15 8 -36 -10 -21 -9 -28 4 -38 22 -19 36
-60 23 -73 -14 -14 -13 -26 4 -26 28 0 35 -24 15 -49 -10 -13 -19 -19 -19 -15
-1 5 -8 -3 -16 -18 -8 -16 -19 -28 -24 -28 -10 0 -7 -56 5 -83 4 -11 3 -23 -4
-30 -15 -15 -14 -27 4 -27 8 0 15 -7 15 -16 0 -8 5 -12 10 -9 6 3 10 2 10 -4
0 -5 -5 -13 -10 -16 -6 -4 -8 -10 -5 -15 3 -5 0 -12 -7 -16 -7 -4 -10 -4 -6 0
9 10 -28 46 -47 46 -21 0 -19 -30 3 -31 15 0 14 -1 -3 -8 -19 -7 -19 -8 3 -27
28 -24 29 -44 1 -37 -19 5 -21 2 -17 -42 2 -31 -1 -50 -9 -52 -8 -3 -11 6 -9
24 2 15 -1 31 -7 35 -7 4 -7 11 1 21 11 12 8 17 -17 25 -30 11 -30 10 -27 -24
1 -19 -2 -34 -7 -34 -4 0 -7 -10 -5 -22 2 -15 10 -23 23 -23 11 0 20 -6 19
-12 -1 -7 -2 -20 -2 -28 -1 -8 -20 -28 -43 -44 -30 -22 -49 -29 -75 -27 -19 2
-37 6 -41 10 -13 13 -20 5 -15 -19 4 -26 -6 -33 -24 -15 -6 6 -15 3 -27 -10
-15 -18 -15 -20 1 -29 15 -8 14 -11 -8 -29 -20 -16 -26 -18 -28 -6 -2 8 -7 14
-12 14 -12 0 -19 -50 -8 -56 6 -4 6 -9 -1 -14 -8 -4 -9 -14 -2 -32 14 -37 -2
-54 -24 -25 -16 21 -21 23 -46 13 -16 -6 -29 -18 -29 -27 0 -9 -7 -22 -15 -29
-8 -7 -15 -18 -15 -25 0 -17 -68 -85 -86 -85 -12 0 -20 33 -15 63 2 12 -11 8
-31 -10 -20 -18 -23 -17 -32 15 -5 13 -3 22 3 22 18 0 13 28 -9 50 -10 10 -30
40 -42 66 -29 59 -59 73 -91 41 -22 -22 -51 -24 -74 -5 -15 12 -58 7 -57 -7 0
-5 9 -11 20 -13 46 -8 50 -12 24 -32 -14 -11 -34 -20 -45 -20 -18 0 -18 -1 4
-23 18 -17 24 -19 29 -8 3 11 9 8 22 -9 16 -22 18 -22 43 -6 31 21 38 12 27
-34 -7 -32 -9 -33 -15 -13 -7 22 -45 33 -45 14 0 -5 -15 -2 -32 7 -40 20 -78
23 -78 5 0 -22 -46 -38 -64 -24 -19 16 -36 6 -36 -22 0 -12 -5 -29 -10 -37 -8
-12 -13 -13 -30 -2 -11 7 -20 10 -20 8 0 -14 25 -56 33 -56 5 0 7 -12 4 -26
-7 -37 30 -75 62 -63 27 10 55 -6 47 -27 -3 -7 0 -15 7 -18 7 -2 2 -5 -11 -5
-13 -1 -20 3 -17 9 11 18 -25 23 -44 6 -10 -9 -25 -16 -33 -16 -9 0 -19 -7
-22 -16 -4 -11 -17 -15 -47 -12 -34 2 -42 0 -45 -15 -3 -22 43 -47 54 -30 4 5
25 16 47 24 22 8 42 17 45 21 3 4 23 3 45 -2 36 -9 42 -7 63 16 l23 27 6 -23
c3 -12 16 -25 29 -30 21 -8 22 -12 11 -40 -11 -28 -13 -29 -24 -13 -9 12 -16
14 -24 6 -8 -8 -8 -13 0 -17 19 -12 12 -28 -9 -21 -14 5 -20 2 -20 -9 0 -20
-19 -21 -26 -1 -4 9 -19 15 -40 15 -19 0 -34 3 -34 8 0 7 -47 32 -62 32 -4 0
-8 -9 -8 -20 0 -24 -32 -27 -50 -5 -16 19 -40 19 -40 0 0 -22 -16 -18 -33 8
-12 19 -22 23 -46 19 -19 -2 -31 -10 -31 -19 0 -10 -6 -13 -16 -9 -9 3 -21 6
-27 7 -7 0 -1 5 12 10 32 13 23 19 -36 25 l-50 5 5 -31 c4 -26 11 -32 51 -45
l46 -15 -57 3 c-32 2 -58 1 -58 -2 0 -10 52 -31 61 -25 5 3 9 1 9 -4 0 -16
-13 -22 -26 -11 -13 10 -32 -6 -20 -18 3 -3 -4 -19 -15 -34 -17 -24 -18 -29
-5 -29 20 0 20 -14 0 -34 -22 -22 -37 -20 -31 4 8 30 -28 26 -58 -6 -20 -22
-30 -25 -56 -20 l-31 6 23 -20 c20 -16 21 -19 7 -20 -10 0 -26 10 -38 22 l-20
22 -24 -23 c-14 -13 -22 -29 -20 -36 3 -7 0 -16 -7 -21 -9 -5 -10 1 -6 25 6
30 5 32 -16 25 -12 -3 -27 -11 -34 -16 -7 -5 -17 -7 -22 -4 -12 8 -3 37 16 53
8 6 12 16 8 22 -9 16 -25 13 -25 -3 0 -21 -21 -31 -31 -15 -8 11 -11 11 -20
-4 -8 -14 -14 -16 -24 -7 -8 7 -19 9 -25 5 -15 -9 -12 -35 4 -35 16 0 29 -27
20 -41 -3 -5 -14 -9 -24 -9 -13 0 -18 7 -18 23 4 64 -2 97 -18 97 -14 0 -14
-3 -4 -15 11 -13 9 -20 -9 -38 -11 -13 -21 -36 -21 -51 0 -24 -2 -27 -15 -16
-8 7 -15 19 -15 26 0 18 -14 18 -29 1 -8 -10 -7 -17 1 -25 16 -16 2 -28 -16
-13 -9 8 -28 10 -48 6 -44 -8 -63 12 -54 56 5 29 4 30 -12 18 -9 -7 -19 -15
-21 -16 -2 -1 2 -9 9 -18 10 -12 9 -16 -3 -21 -20 -7 -37 3 -37 22 0 8 -5 12
-10 9 -6 -3 -10 -1 -10 4 0 6 6 11 14 11 8 0 18 5 22 11 4 7 -6 10 -32 8 -32
-3 -38 -1 -36 14 4 22 -7 22 -24 0 -12 -17 -13 -17 -14 3 0 28 -24 48 -49 41
-15 -3 -21 1 -23 17 -2 15 -9 20 -25 18 -20 -3 -23 1 -23 28 0 21 -4 30 -12
27 -9 -3 -12 -21 -11 -51 2 -37 0 -46 -14 -46 -13 0 -14 3 -5 12 7 7 12 16 12
22 0 6 -5 5 -12 -2 -7 -7 -21 -12 -31 -12 -14 0 -17 4 -12 18 4 9 11 29 15 43
4 15 15 38 24 52 19 29 8 42 -25 32 -11 -4 -34 -1 -51 6 -29 12 -33 11 -46 -9
-14 -22 -62 -31 -62 -12 0 6 7 10 15 10 8 0 15 7 15 15 0 13 -6 11 -30 -7 -16
-12 -30 -25 -30 -29 0 -7 39 -22 53 -20 9 1 9 -13 0 -22 -3 -4 -11 -3 -17 2
-17 13 -58 -6 -55 -26 3 -36 -2 -37 -21 -5 -17 28 -23 32 -35 22 -10 -8 -15
-9 -15 -2 0 6 14 21 30 34 17 12 30 30 30 39 0 10 5 21 10 24 6 3 10 11 10 17
0 6 -20 -11 -45 -37 -25 -27 -48 -46 -52 -42 -3 4 4 18 16 31 17 18 19 26 10
32 -9 5 -6 10 9 15 27 10 28 25 2 32 -19 5 -36 -5 -59 -35 -10 -14 -9 -16 8
-11 14 4 21 1 21 -10 0 -8 -9 -17 -19 -20 -11 -2 -21 -15 -23 -28 -4 -32 -53
-35 -53 -4 0 11 -8 26 -19 34 -13 10 -15 15 -6 21 19 11 4 40 -20 40 -12 0
-20 7 -21 18 0 10 -3 12 -6 5 -6 -15 -33 -17 -33 -3 0 6 -7 10 -15 10 -8 0
-15 -4 -15 -10 0 -5 -7 -10 -15 -10 -14 0 -19 11 -16 38 2 16 -16 16 -23 0 -3
-7 -3 -3 -1 9 3 12 1 24 -5 28 -5 3 -8 17 -6 31 3 13 0 24 -5 24 -5 0 -9 -4
-9 -10 0 -17 -27 -11 -34 7 -5 11 -1 22 10 30 13 9 15 16 7 24 -8 8 -17 6 -31
-7 -12 -10 -19 -21 -17 -25 5 -6 -52 -23 -69 -20 -4 1 -14 -3 -20 -9 -16 -12
-27 -3 -19 16 7 19 -11 18 -27 -1 -18 -22 -27 -19 -33 11 -3 19 -1 24 10 20
11 -5 13 -1 7 17 -4 12 -12 25 -18 29 -26 18 6 6 40 -14 l37 -22 -7 25 c-18
57 -18 69 -4 69 8 0 15 7 15 15 0 24 -36 17 -67 -13 l-28 -28 2 29 c0 17 -4
32 -10 34 -7 2 -11 -4 -10 -14 0 -10 -5 -17 -13 -15 -7 1 -19 -2 -26 -8 -7 -6
-20 -7 -29 -4 -9 4 -16 3 -15 -2 7 -38 -14 -45 -42 -12 -13 14 -16 25 -9 33 6
7 4 21 -5 39 -18 34 -18 36 -5 36 6 0 10 -7 10 -15 0 -23 20 -18 29 7 5 15 3
26 -10 39 -20 20 -49 16 -49 -7 0 -8 -6 -14 -14 -14 -9 0 -12 -7 -9 -20 4 -15
0 -20 -13 -20 -24 0 -43 41 -51 109 -5 43 -9 51 -22 45 -9 -4 -26 -7 -38 -7
-13 1 -23 -5 -23 -13 0 -8 9 -14 20 -14 13 0 18 -5 14 -15 -4 -8 -12 -15 -20
-15 -8 0 -14 -5 -14 -12 0 -6 -6 -3 -14 7 -8 12 -19 16 -31 12 -12 -5 -16 -3
-12 6 6 15 -29 41 -43 32 -11 -7 -7 -35 7 -43 5 -4 12 -19 15 -34 4 -20 0 -28
-14 -31 -10 -3 -18 -13 -18 -22 0 -11 5 -15 15 -11 8 3 15 1 15 -4 0 -6 6 -10
13 -10 8 0 22 -9 32 -20 19 -21 8 -29 -12 -9 -6 6 -16 8 -22 5 -16 -10 -14
-36 3 -36 14 0 51 -48 43 -56 -10 -10 -57 9 -57 22 0 8 -4 14 -10 14 -5 0 -10
14 -10 32 0 17 -3 28 -7 24 -5 -4 -8 -153 -8 -330 l0 -322 -37 -55 c-21 -30
-60 -106 -87 -169 -27 -63 -63 -146 -81 -185 -17 -38 -50 -116 -72 -172 -22
-57 -43 -103 -47 -103 -3 0 -43 -5 -88 -10 -106 -13 -200 -53 -343 -144 -63
-40 -182 -109 -265 -153 -82 -45 -177 -95 -210 -113 -118 -64 -315 -200 -466
-321 -53 -42 -152 -119 -220 -170 -68 -51 -153 -117 -189 -147 -35 -30 -95
-75 -132 -100 l-68 -45 0 -489 0 -488 1815 0 c1032 0 1815 4 1815 9 0 5 -11
12 -25 15 -14 4 -25 12 -25 18 0 6 -10 22 -22 35 -26 27 -6 32 30 7 13 -9 22
-11 22 -4 0 6 -16 18 -35 26 -35 14 -44 28 -25 39 5 3 10 13 10 21 0 11 -4 12
-19 4 -11 -5 -22 -6 -25 -1 -6 9 19 34 44 44 9 4 5 6 -10 6 -51 -2 -58 1 -63
31 -4 18 -13 30 -22 30 -13 0 -14 4 -5 21 9 16 8 24 -4 38 -9 10 -16 23 -16
29 0 6 -9 16 -20 22 -10 6 -17 17 -14 24 3 8 -4 20 -15 28 -12 8 -24 28 -27
45 -4 19 -15 35 -30 41 -12 6 -30 25 -39 42 -16 31 -16 31 4 20 12 -6 21 -7
21 -2 0 17 -27 33 -44 26 -21 -8 -44 45 -24 57 14 9 1 22 -54 56 -16 10 -28
24 -28 33 0 9 -9 23 -20 33 -11 9 -20 24 -20 32 0 9 -4 14 -9 11 -11 -7 -41
37 -41 59 0 8 -4 15 -10 15 -5 0 -7 6 -4 14 3 8 -14 32 -39 57 -25 24 -48 54
-52 67 -3 12 -11 22 -16 22 -5 0 -9 6 -9 13 0 7 -9 20 -20 30 -11 9 -20 24
-20 33 0 10 -17 34 -38 54 -21 21 -36 42 -34 48 2 6 -2 13 -7 17 -6 3 -11 15
-11 25 0 11 -9 24 -20 30 -11 6 -20 19 -20 29 0 9 -13 33 -30 51 -16 18 -30
37 -30 41 0 5 -13 28 -30 52 -16 25 -30 53 -30 62 0 10 -6 23 -14 29 -11 8
-12 22 -7 58 7 43 6 48 -11 48 -23 0 -33 23 -20 47 8 13 5 21 -10 35 -11 9
-17 22 -13 27 3 6 -1 21 -9 33 -11 15 -12 26 -5 40 7 14 6 23 -6 34 -18 19
-19 26 -3 42 7 7 8 12 4 12 -5 0 -3 6 3 14 9 10 8 16 -4 26 -23 19 -18 38 9
33 15 -3 25 1 29 10 7 17 -17 42 -31 33 -6 -3 -15 1 -22 9 -6 7 -19 11 -28 8
-15 -4 -15 -3 -2 6 8 6 30 8 48 5 33 -6 45 9 16 20 -8 3 -12 11 -8 17 3 6 0
15 -7 20 -10 6 -11 11 -3 19 16 16 41 2 53 -28 14 -34 51 -60 51 -36 0 9 -5
12 -12 8 -8 -5 -9 0 -4 17 4 13 8 31 9 39 3 19 34 43 47 35 6 -3 10 -1 10 4 0
6 9 11 19 11 10 0 21 7 25 15 3 8 1 15 -4 15 -6 0 -10 8 -10 18 -1 22 -22 50
-35 45 -14 -4 -18 44 -5 52 6 3 10 17 10 31 0 17 6 24 19 24 23 0 34 -35 15
-51 -22 -18 -18 -42 6 -36 11 3 23 1 26 -4 3 -5 16 -9 30 -9 14 0 38 -7 55
-15 16 -9 34 -13 39 -10 6 3 10 -3 10 -13 0 -20 26 -34 83 -46 15 -4 27 -13
27 -21 0 -8 7 -15 16 -15 10 0 14 6 11 14 -8 19 41 40 59 25 9 -8 22 -8 41 -1
l28 10 -27 1 c-46 2 -32 16 18 19 25 2 52 -2 60 -9 11 -9 18 -9 25 -2 8 8 2
19 -20 39 -17 15 -31 31 -31 35 0 9 72 2 121 -12 32 -10 39 -17 39 -37 0 -21
-2 -22 -15 -12 -8 7 -15 9 -15 4 0 -5 16 -20 35 -34 37 -27 44 -40 20 -40 -8
0 -15 -6 -15 -14 0 -17 33 -31 38 -17 2 6 8 11 13 11 6 0 8 -4 5 -8 -11 -19 9
-30 29 -16 19 14 18 16 -27 59 -26 24 -43 47 -38 50 14 9 12 43 -2 48 -7 2 -2
2 12 -1 14 -3 34 -6 45 -7 47 -4 74 -17 68 -33 -5 -12 -2 -11 14 4 11 11 16
23 12 28 -5 6 -9 13 -9 17 0 12 53 20 63 10 8 -8 7 -11 -1 -11 -7 0 -12 -4
-12 -10 0 -19 37 -10 66 15 16 14 34 23 41 20 7 -2 15 0 19 6 4 6 10 7 17 0
20 -16 87 -25 87 -12 0 7 5 9 11 5 8 -5 8 -9 -1 -14 -8 -5 -5 -12 11 -24 26
-17 43 -21 35 -7 -9 13 36 21 69 13 41 -12 42 -29 1 -24 -31 4 -34 2 -29 -18
3 -11 11 -19 18 -16 7 2 34 8 60 12 41 6 47 5 42 -9 -4 -11 2 -17 21 -21 45
-9 133 -6 127 5 -4 5 -15 9 -26 9 -10 0 -19 5 -19 11 0 15 59 3 80 -16 9 -8
26 -15 37 -15 12 0 23 -5 25 -12 3 -8 11 -7 28 5 17 12 28 13 42 6 17 -9 19
-8 13 10 -5 16 -2 21 13 21 11 0 35 2 53 5 19 3 28 3 22 -1 -24 -11 -13 -24
18 -24 18 0 47 9 66 21 33 20 63 20 63 -1 0 -5 -11 -10 -25 -10 -15 0 -25 -6
-25 -14 0 -12 7 -12 47 0 46 14 46 14 28 -6 -10 -11 -26 -20 -36 -20 -10 0
-23 -9 -29 -20 -14 -26 2 -26 44 -1 17 10 51 21 76 24 41 5 43 4 26 -9 -11 -8
-23 -14 -28 -14 -4 0 -8 -4 -8 -10 0 -13 57 -13 65 0 3 6 21 10 38 10 23 0 28
-3 18 -9 -12 -8 -9 -11 11 -16 15 -4 29 -13 32 -22 3 -8 10 -11 16 -8 5 3 10
2 10 -4 0 -5 -24 -17 -52 -27 -64 -21 -100 -43 -92 -56 3 -5 21 2 38 16 23 17
36 22 44 14 7 -7 16 -6 30 1 28 15 32 14 32 -5 0 -11 -6 -15 -20 -11 -11 3
-20 1 -20 -5 0 -6 -7 -8 -15 -4 -8 3 -15 1 -15 -4 0 -6 7 -10 16 -10 10 0 14
-6 10 -15 -7 -20 18 -20 38 0 18 18 26 19 26 2 0 -7 -25 -23 -55 -37 -36 -17
-55 -31 -55 -43 0 -10 -7 -20 -15 -23 -8 -4 -15 -11 -15 -17 0 -6 11 0 24 12
15 14 26 19 31 12 3 -6 2 -11 -3 -11 -5 0 -12 -13 -14 -30 -4 -29 4 -36 35
-31 4 0 7 -3 7 -8 0 -15 -61 -25 -70 -11 -9 14 -54 4 -71 -16 -10 -13 -6 -14
32 -8 40 7 43 6 30 -9 -7 -10 -19 -17 -25 -17 -18 -1 -61 -38 -53 -46 4 -4 16
1 27 11 25 22 39 12 17 -12 -15 -17 -17 -22 -17 -40 0 -4 -5 -2 -12 5 -18 18
-40 15 -81 -13 -42 -29 -47 -45 -14 -45 21 0 20 -2 -8 -24 -51 -41 -85 -75
-85 -86 0 -5 -5 -10 -11 -10 -7 0 -9 -10 -5 -25 6 -22 2 -26 -38 -36 -28 -7
-46 -18 -49 -29 -3 -11 -19 -20 -43 -25 -42 -9 -54 -11 -69 -16 -29 -7 -87 15
-106 42 -11 16 -17 29 -12 29 4 1 -2 9 -15 20 -13 11 -21 24 -17 30 4 6 3 10
-2 9 -21 -4 -41 2 -59 19 -32 28 -103 72 -118 72 -16 0 -29 27 -20 41 8 14
-47 32 -60 19 -16 -16 -28 -12 -24 7 4 19 -66 83 -91 83 -8 0 -12 2 -9 5 3 3
24 2 47 -4 22 -5 41 -6 41 -2 0 13 -69 32 -94 25 -14 -3 -34 -3 -43 2 -10 4
-22 8 -27 8 -12 1 -20 26 -9 26 5 0 15 -6 21 -12 10 -10 14 -8 18 10 4 12 13
22 20 22 24 0 15 19 -12 26 -17 4 -29 2 -34 -6 -5 -7 -15 -10 -25 -6 -13 4
-16 2 -11 -9 3 -8 2 -15 -2 -16 -4 0 -19 -2 -34 -4 -17 -2 -33 4 -45 17 -18
21 -18 21 10 14 36 -9 34 4 -5 41 -18 17 -38 38 -43 48 -6 9 -23 19 -38 20
-14 2 -34 11 -44 20 -11 12 -18 14 -21 6 -4 -13 -32 -15 -32 -3 0 11 -45 32
-67 32 -13 0 -13 -3 -3 -15 7 -8 17 -15 23 -15 10 0 33 -24 95 -102 20 -25 44
-49 52 -52 30 -12 56 -32 102 -79 26 -26 52 -47 57 -47 4 0 14 -7 21 -15 7 -9
20 -15 29 -13 18 3 81 -21 81 -31 0 -3 7 -15 15 -25 14 -19 16 -19 28 -2 13
17 15 17 43 -8 29 -27 29 -27 4 -20 -14 4 -31 9 -37 11 -7 3 -13 0 -13 -7 0
-8 -9 -10 -27 -6 -24 5 -26 4 -12 -6 9 -7 20 -24 24 -38 9 -29 69 -90 89 -90
7 0 30 -11 50 -25 44 -30 46 -30 39 -5 -3 11 -13 20 -23 20 -16 0 -36 27 -26
37 7 7 78 -26 72 -35 -2 -4 -2 -12 2 -18 10 -13 90 -64 101 -64 5 0 13 -5 17
-12 5 -8 2 -9 -12 -4 -10 5 -26 9 -34 10 -8 1 -30 9 -47 19 -49 26 -32 -4 17
-32 22 -12 40 -26 40 -32 0 -5 -2 -9 -4 -9 -5 0 -67 29 -96 45 -26 15 -36 13
-25 -4 3 -6 15 -11 26 -11 10 0 19 -4 19 -10 0 -5 -8 -10 -17 -10 -15 0 -16
-2 -3 -10 8 -5 28 -10 43 -10 16 0 43 -6 60 -14 55 -24 71 -30 92 -31 11 -1
30 -2 43 -3 30 -3 28 -18 -3 -26 -14 -4 -25 -14 -25 -22 0 -12 6 -15 23 -10
12 3 28 6 35 6 9 0 11 7 6 22 -6 20 -4 19 18 -5 25 -27 61 -36 72 -18 10 15
76 19 76 4 0 -17 8 -16 26 2 14 14 11 19 -8 16 -5 0 -8 2 -8 6 0 10 104 49
152 57 48 9 58 25 19 32 -33 7 -33 24 -1 24 11 0 40 12 66 26 30 17 54 24 69
20 26 -7 75 8 75 23 0 5 -13 14 -30 19 -24 9 -35 7 -63 -12 -36 -24 -103 -40
-112 -26 -5 9 46 50 63 50 5 0 15 7 22 15 7 8 23 15 36 15 17 0 24 6 24 19 0
11 5 23 10 26 6 3 10 11 10 17 0 13 -51 -19 -68 -44 -7 -10 -24 -18 -38 -18
-29 0 -32 16 -3 23 11 3 23 14 26 25 5 21 34 36 91 47 18 4 37 15 42 26 6 10
20 19 32 19 12 0 35 12 50 27 27 25 28 26 28 6 0 -15 -15 -30 -47 -49 -30 -17
-42 -29 -33 -32 8 -3 16 0 18 7 2 6 16 11 30 11 27 -1 26 -1 -15 -39 -29 -26
-39 -41 -33 -51 6 -11 1 -18 -21 -27 -37 -15 -33 -39 5 -35 38 4 32 -9 -19
-42 -25 -15 -45 -30 -43 -31 2 -2 16 -1 33 2 20 4 52 29 94 75 36 37 71 68 78
68 24 0 13 -16 -32 -49 -27 -19 -45 -40 -45 -52 0 -10 -16 -36 -35 -58 -48
-53 -46 -62 12 -40 15 6 28 9 29 7 0 -2 8 3 16 10 12 10 17 10 20 1 6 -17 -59
-79 -82 -79 -10 0 -21 -4 -25 -10 -3 -5 -12 -7 -19 -4 -8 3 -17 1 -21 -5 -10
-16 65 -13 95 4 14 8 35 14 47 15 16 0 25 8 29 25 3 14 15 30 25 36 11 5 19
14 19 20 0 5 12 21 28 34 23 21 25 26 12 35 -13 9 -13 12 4 21 38 23 79 66 74
79 -3 10 -10 8 -26 -8 -12 -12 -29 -22 -37 -22 -8 0 -15 -4 -15 -9 0 -5 -8
-12 -17 -15 -13 -5 -11 0 7 20 41 45 64 63 83 64 9 0 17 5 17 11 0 6 -9 8 -20
4 -11 -3 -20 -3 -20 2 0 18 32 53 48 53 10 0 26 13 35 30 21 36 16 37 -23 8
-16 -12 -32 -19 -35 -16 -9 8 6 38 19 38 19 1 72 53 58 58 -34 11 7 49 48 44
8 -1 32 14 53 33 47 43 39 44 -38 5 -66 -32 -75 -35 -75 -20 0 5 16 18 35 27
26 14 32 22 25 33 -8 13 -13 13 -39 -3 -39 -23 -49 -22 -20 3 l24 20 -47 -7
c-40 -5 -48 -3 -48 11 0 9 6 16 14 16 8 0 24 14 36 30 25 35 54 53 89 54 13 1
26 7 29 15 3 10 0 12 -11 8 -10 -4 -17 2 -21 16 -4 15 4 29 29 52 39 34 43 50
18 77 -19 22 -1 25 21 3 22 -22 19 -23 80 31 15 14 42 28 58 31 17 3 33 13 35
22 2 9 13 21 23 26 10 6 53 34 94 62 65 46 78 52 101 43 35 -13 31 -36 -7 -44
-68 -13 -131 -65 -73 -59 10 1 26 -8 36 -20 23 -27 24 -37 4 -37 -8 0 -15 -4
-15 -10 0 -12 2 -12 34 0 14 5 26 7 26 5 0 -12 -47 -58 -67 -66 -13 -5 -23
-13 -23 -19 0 -6 5 -8 10 -5 16 10 40 -14 33 -32 -5 -13 -3 -13 15 -4 15 8 23
8 27 0 4 -6 13 -8 21 -5 12 4 11 -1 -1 -31 -9 -20 -19 -41 -24 -47 -5 -6 -11
-28 -15 -49 -6 -33 -4 -38 16 -47 26 -10 27 -10 -32 -16 -49 -5 -55 -8 -65
-42 l-7 -24 21 21 c26 26 33 26 54 3 13 -15 14 -22 4 -42 -7 -14 -22 -29 -33
-35 -17 -8 -19 -14 -10 -27 8 -13 5 -22 -12 -41 -12 -13 -20 -30 -17 -38 3 -9
-5 -24 -19 -36 -19 -17 -24 -29 -20 -50 3 -17 0 -31 -9 -38 -7 -5 -18 -19 -24
-30 -7 -11 -17 -20 -25 -21 -7 0 -21 -2 -30 -2 -10 -1 -18 -6 -18 -12 0 -5 7
-7 15 -4 8 4 17 -1 21 -10 7 -18 -30 -68 -63 -86 -12 -7 -27 -27 -33 -44 -6
-17 -16 -39 -21 -48 -7 -13 -5 -18 5 -18 11 0 9 -7 -8 -26 -47 -52 -56 -64
-56 -74 0 -5 -6 -13 -14 -17 -8 -4 -24 -24 -35 -45 -12 -20 -28 -39 -36 -42
-8 -3 -15 -17 -15 -31 0 -14 -4 -25 -10 -25 -5 0 -10 -10 -10 -23 0 -39 -72
-119 -127 -142 -30 -13 -34 -19 -29 -39 4 -15 1 -26 -7 -30 -6 -3 1 -2 17 1
l29 6 -39 -35 c-21 -20 -48 -38 -59 -41 -17 -4 -18 -5 -2 -6 27 -2 17 -34 -13
-41 -14 -3 -25 -13 -25 -22 0 -25 -26 -48 -53 -48 -20 0 -23 -3 -14 -12 7 -7
12 -22 12 -34 0 -17 -5 -21 -19 -17 -13 3 -24 -5 -38 -30 -17 -27 -29 -35 -62
-41 -22 -3 -41 -11 -41 -16 0 -13 17 -13 25 0 4 7 12 7 24 0 10 -5 21 -6 25
-3 3 3 6 -8 6 -26 0 -37 -21 -64 -44 -55 -12 5 -16 0 -16 -17 0 -21 -5 -24
-47 -26 -44 -2 -89 -23 -49 -23 9 0 24 -7 32 -15 14 -13 13 -15 -3 -15 -14 -1
-13 -4 7 -15 l25 -15 -22 -6 c-13 -3 -23 -10 -23 -15 0 -16 22 -9 41 14 18 21
18 21 19 1 0 -11 -6 -26 -12 -32 -17 -17 3 -29 42 -27 17 1 30 0 30 -2 0 -5
-21 -31 -42 -50 -11 -11 -15 -25 -11 -45 4 -23 2 -28 -13 -28 -11 0 -26 -5
-34 -10 -10 -6 628 -10 1778 -10 l1792 0 0 559 0 558 -62 28 c-159 71 -223 96
-366 144 -84 28 -160 55 -170 60 -86 43 -115 60 -169 98 -34 24 -84 63 -110
86 -98 87 -228 164 -549 326 -72 36 -146 73 -164 81 -23 10 -45 35 -71 80 -21
36 -82 136 -136 223 -54 87 -118 190 -142 230 -153 251 -175 282 -191 272 -9
-5 -6 373 5 645 5 125 5 125 -14 100 -26 -33 -40 -17 -18 20 10 16 16 33 15
37 -2 5 12 25 29 44 41 43 73 105 73 141 0 20 4 26 15 22 10 -4 15 0 15 14 0
11 -7 27 -15 36 -22 21 -19 26 18 26 27 0 34 6 49 38 9 20 26 58 37 83 26 56
26 59 1 59 -13 0 -24 -10 -30 -26 -8 -19 -15 -24 -28 -19 -37 14 -52 8 -53
-22 l-1 -28 -7 25 c-11 34 14 63 47 55 18 -4 30 0 44 15 24 25 18 36 -11 20
-26 -14 -27 -5 -1 22 20 22 18 38 -6 38 -8 0 -14 5 -14 10 0 6 5 10 10 10 16
0 11 72 -7 92 -9 10 -13 21 -9 26 4 4 13 -1 20 -11 17 -23 32 -22 39 3 6 23
39 27 56 6 10 -12 8 -17 -8 -26 -23 -12 -28 -30 -9 -30 6 0 20 7 30 17 17 16
18 15 14 -18 -3 -29 -7 -34 -27 -31 -13 1 -27 8 -31 15 -5 9 -12 8 -25 -6 -15
-15 -16 -19 -3 -27 8 -5 28 -7 45 -4 16 2 25 2 19 -1 -6 -3 -9 -17 -6 -30 3
-18 19 -32 59 -51 45 -22 62 -26 108 -21 69 7 122 37 159 88 26 38 28 44 17
79 -14 47 -14 51 2 47 12 -2 12 2 2 72 -5 30 -3 33 14 28 25 -6 31 1 80 100
41 82 77 187 106 303 9 36 39 126 67 200 50 131 52 139 56 261 4 125 -22 438
-37 449 -4 3 -16 28 -27 55 -22 60 -100 140 -145 150 -44 10 -119 -3 -148 -26
-18 -14 -27 -17 -35 -9 -8 8 -5 16 10 29 16 13 19 22 12 40 -5 15 -3 41 7 74
28 97 50 219 67 370 6 53 15 97 19 97 5 0 6 7 3 15 -4 8 -3 23 1 33 4 9 9 35
10 58 1 22 7 62 13 90 11 46 18 95 27 174 14 133 50 289 68 302 7 4 6 16 -1
35 -15 40 -11 142 7 152 12 8 12 14 1 43 -7 18 -20 41 -28 50 -8 10 -11 25 -7
37 4 12 2 21 -4 21 -6 0 -10 10 -10 23 2 56 -10 136 -24 163 -8 16 -18 45 -22
64 -4 19 -13 45 -21 57 -8 12 -14 28 -14 35 0 6 -9 21 -19 32 -20 22 -38 116
-48 246 -3 49 -9 67 -25 78 -14 10 -18 21 -14 37 6 23 -10 37 -44 40 -27 2
-70 28 -70 42 0 8 -6 21 -14 28 -7 8 -16 31 -19 52 -4 24 -20 53 -41 76 -19
20 -36 44 -39 52 -3 8 -21 21 -39 31 -40 20 -88 63 -88 80 0 6 -22 32 -49 57
-27 25 -44 48 -38 50 7 2 2 9 -11 16 -12 6 -22 16 -22 21 0 6 -7 18 -15 28 -9
9 -31 35 -50 57 -20 22 -49 69 -65 105 -17 36 -35 72 -40 80 -5 8 -16 30 -24
48 -8 17 -19 32 -25 32 -16 0 -63 93 -82 161 -15 53 -37 85 -64 91 -11 2 -25
13 -31 26 -6 12 -18 30 -26 39 -8 10 -18 27 -22 38 -6 15 -9 17 -16 6 -6 -11
-17 -6 -51 22 -23 21 -47 37 -52 37 -6 0 -25 11 -43 25 -18 14 -37 25 -43 25
-6 0 -15 9 -21 19 -12 23 -187 114 -201 105 -6 -3 -16 -1 -23 5 -7 6 -33 13
-57 15 -38 3 -44 7 -41 25 3 17 -2 20 -30 20 -18 -1 -57 11 -85 25 -62 30 -64
31 -57 11 8 -20 5 -19 -58 10 -29 14 -60 25 -69 25 -8 0 -26 11 -39 26 -18 18
-31 23 -48 19 -26 -6 -130 12 -147 26 -6 4 -38 13 -70 18 -33 6 -82 16 -110
21 -53 11 -319 23 -328 14z m1333 -354 c0 -5 -4 -10 -10 -10 -5 0 -10 5 -10
10 0 6 5 10 10 10 6 0 10 -4 10 -10z m-930 -825 c7 -9 20 -13 27 -10 9 3 13 0
11 -7 -3 -7 -13 -14 -24 -14 -10 -1 -23 -3 -29 -5 -5 -2 -20 5 -33 16 -20 18
-21 20 -5 27 28 11 40 9 53 -7z m77 9 c-3 -3 -12 -4 -19 -1 -8 3 -5 6 6 6 11
1 17 -2 13 -5z m560 -120 c-3 -3 -12 -4 -19 -1 -8 3 -5 6 6 6 11 1 17 -2 13
-5z m138 -117 c12 -10 14 -16 7 -21 -7 -4 -12 -2 -12 3 0 6 -9 11 -20 11 -11
0 -20 5 -20 10 0 14 23 12 45 -3z m-2268 -23 c-3 -3 -12 -4 -19 -1 -8 3 -5 6
6 6 11 1 17 -2 13 -5z m-157 -74 c0 -5 -7 -10 -16 -10 -8 0 -12 5 -9 10 3 6
10 10 16 10 5 0 9 -4 9 -10z m2525 -20 c3 -5 1 -10 -4 -10 -6 0 -11 5 -11 10
0 6 2 10 4 10 3 0 8 -4 11 -10z m125 -332 c-6 -7 -17 -22 -25 -33 -14 -19 -14
-19 -15 7 0 24 9 32 43 37 4 0 3 -5 -3 -11z m-3075 -8 c-3 -5 -11 -10 -16 -10
-6 0 -7 5 -4 10 3 6 11 10 16 10 6 0 7 -4 4 -10z m-107 -37 c-2 -14 3 -17 27
-15 44 3 60 -10 46 -37 -7 -12 -9 -25 -6 -30 3 -5 0 -11 -6 -13 -9 -3 -9 -9
-1 -24 9 -18 8 -20 -11 -18 -12 1 -26 3 -30 3 -5 1 -5 6 -2 11 3 6 -3 10 -15
10 -20 0 -20 1 -5 30 10 19 23 30 36 30 12 0 19 5 16 13 -2 6 -11 10 -18 8 -8
-2 -22 -6 -31 -8 -14 -4 -16 1 -14 23 4 34 4 34 11 34 3 0 5 -8 3 -17z m175
-19 c-4 -10 -9 -12 -15 -6 -12 12 -1 35 12 27 5 -3 6 -13 3 -21z m-243 -54 c0
-5 -4 -10 -9 -10 -6 0 -13 5 -16 10 -3 6 1 10 9 10 9 0 16 -4 16 -10z m41 -18
c-7 -2 -18 1 -23 6 -8 8 -4 9 13 5 13 -4 18 -8 10 -11z m49 -62 c13 -8 13 -10
-2 -10 -9 0 -20 5 -23 10 -8 13 5 13 25 0z m3077 -26 c-3 -3 -12 -4 -19 -1 -8
3 -5 6 6 6 11 1 17 -2 13 -5z m103 -94 c0 -5 -4 -10 -10 -10 -5 0 -10 5 -10
10 0 6 5 10 10 10 6 0 10 -4 10 -10z m-3220 -10 c0 -5 -5 -10 -11 -10 -5 0 -7
5 -4 10 3 6 8 10 11 10 2 0 4 -4 4 -10z m3495 -39 c-3 -6 -11 -9 -16 -6 -5 4
-9 -1 -9 -10 0 -10 -7 -15 -17 -13 -21 4 -30 28 -10 28 8 0 20 7 27 15 15 18
37 4 25 -14z m-254 -14 c-13 -13 -26 -3 -16 12 3 6 11 8 17 5 6 -4 6 -10 -1
-17z m-41 3 c0 -5 -5 -10 -11 -10 -5 0 -7 5 -4 10 3 6 8 10 11 10 2 0 4 -4 4
-10z m290 -40 c-8 -5 -16 -8 -17 -6 -2 2 -1 11 3 20 5 13 10 14 18 6 8 -8 7
-13 -4 -20z m-3540 -24 c0 -3 -4 -8 -10 -11 -5 -3 -10 -1 -10 4 0 6 5 11 10
11 6 0 10 -2 10 -4z m3320 -20 c8 -10 8 -21 2 -32 -9 -16 -11 -15 -21 5 -7 12
-16 19 -22 16 -5 -4 -9 -2 -9 4 0 8 15 18 31 20 4 1 12 -6 19 -13z m75 -4 c-3
-3 -11 0 -18 7 -9 10 -8 11 6 5 10 -3 15 -9 12 -12z m49 -6 c-3 -8 -1 -17 5
-21 6 -3 11 -11 11 -17 0 -7 -6 -6 -15 2 -16 13 -21 65 -5 55 5 -3 7 -12 4
-19z m-57 -32 c12 -12 13 -18 4 -27 -9 -9 -14 -8 -21 3 -11 17 -13 40 -4 40 3
0 12 -7 21 -16z m-37 -19 c0 -14 -4 -25 -9 -25 -4 0 -6 11 -3 25 2 14 6 25 8
25 2 0 4 -11 4 -25z m-3361 -14 c-13 -11 -26 -17 -28 -15 -5 5 30 33 43 34 4
0 -2 -9 -15 -19z m3461 -49 c-14 -5 -16 -3 -24 28 l-7 25 21 -25 c14 -15 18
-26 10 -28z m-60 2 c0 -2 -7 -4 -15 -4 -8 0 -15 4 -15 10 0 5 7 7 15 4 8 -4
15 -8 15 -10z m-3410 -24 c0 -5 -7 -10 -15 -10 -8 0 -15 5 -15 10 0 6 7 10 15
10 8 0 15 -4 15 -10z m3487 -52 c-3 -8 -6 -5 -6 6 -1 11 2 17 5 13 3 -3 4 -12
1 -19z m28 -48 c-3 -5 -12 -10 -18 -10 -7 0 -6 4 3 10 19 12 23 12 15 0z m130
-80 c3 -5 1 -10 -4 -10 -6 0 -11 5 -11 10 0 6 2 10 4 10 3 0 8 -4 11 -10z
m145 -40 c0 -5 -4 -10 -10 -10 -5 0 -10 5 -10 10 0 6 5 10 10 10 6 0 10 -4 10
-10z m10 -40 c0 -11 -4 -20 -10 -20 -5 0 -10 9 -10 20 0 11 5 20 10 20 6 0 10
-9 10 -20z m94 4 c3 -8 2 -12 -4 -9 -6 3 -10 10 -10 16 0 14 7 11 14 -7z
m-254 -39 c11 -13 8 -15 -19 -15 -30 0 -39 9 -24 23 11 11 30 8 43 -8z m280
-25 c0 -5 -2 -10 -4 -10 -3 0 -8 5 -11 10 -3 6 -1 10 4 10 6 0 11 -4 11 -10z
m-280 -46 c0 -17 -5 -17 -31 -3 -11 5 -17 14 -14 19 8 13 45 0 45 -16z m96 0
c21 -15 42 -31 45 -36 4 -6 16 -7 28 -3 11 3 21 2 21 -3 0 -16 -46 -20 -66 -5
-10 7 -24 13 -31 13 -20 0 -73 42 -67 52 9 14 30 9 70 -18z m87 -88 c3 -8 3
-17 0 -20 -9 -9 -44 14 -38 25 9 14 32 11 38 -5z m-35 -21 c13 -14 22 -29 20
-35 -4 -13 -44 15 -58 41 -16 28 9 25 38 -6z m-507 -128 c-6 -8 -23 -12 -40
-9 -16 2 -37 0 -46 -6 -13 -7 -5 -11 36 -16 107 -13 157 -28 162 -47 4 -15 15
-19 49 -19 34 -1 39 -3 26 -11 -28 -16 -21 -24 30 -39 53 -14 77 -40 66 -72
-6 -19 -7 -19 -16 -5 -12 22 -29 22 -21 0 4 -10 2 -14 -5 -9 -6 3 -13 2 -17
-3 -3 -6 -11 -8 -18 -6 -7 3 -18 -7 -24 -22 -17 -36 -16 -44 4 -36 11 4 14 3
9 -6 -5 -7 -15 -9 -25 -5 -9 4 -38 10 -66 15 -27 4 -99 16 -160 27 -60 11
-150 25 -200 31 -49 7 -109 14 -132 17 -24 3 -43 9 -43 15 0 5 -8 9 -17 10
-13 0 -11 3 7 10 14 6 34 8 45 5 18 -4 17 -3 -4 15 l-24 20 21 6 c12 3 22 11
22 17 0 20 39 46 70 46 20 0 30 5 30 16 0 31 129 70 244 73 39 1 46 -2 37 -12z
m125 -17 c9 0 13 -4 10 -8 -3 -5 -19 -7 -35 -4 -17 2 -28 9 -25 14 3 5 13 7
21 4 8 -3 21 -6 29 -6z m199 -40 c3 -5 -1 -10 -9 -10 -8 0 -18 5 -21 10 -3 6
1 10 9 10 8 0 18 -4 21 -10z m-1664 -53 c-8 -8 -11 -7 -11 4 0 20 13 34 18 19
3 -7 -1 -17 -7 -23z m1594 -17 c3 -5 2 -10 -4 -10 -5 0 -13 5 -16 10 -3 6 -2
10 4 10 5 0 13 -4 16 -10z m115 -70 c0 -5 -6 -10 -14 -10 -8 0 -18 5 -21 10
-3 6 3 10 14 10 12 0 21 -4 21 -10z m40 6 c0 -11 -19 -15 -25 -6 -3 5 1 10 9
10 9 0 16 -2 16 -4z m20 -36 c0 -5 -7 -10 -16 -10 -8 0 -12 5 -9 10 3 6 10 10
16 10 5 0 9 -4 9 -10z m39 -71 c-16 -10 -23 -4 -14 10 3 6 11 8 17 5 6 -4 5
-9 -3 -15z m51 -9 c0 -5 -2 -10 -4 -10 -3 0 -8 5 -11 10 -3 6 -1 10 4 10 6 0
11 -4 11 -10z m-659 -40 c19 0 40 -5 47 -12 7 -7 12 -8 12 -4 0 5 7 3 15 -4
22 -18 18 -32 -5 -20 -16 9 -22 8 -26 -5 -9 -21 -27 -19 -43 6 -10 17 -15 19
-21 9 -7 -11 -14 -11 -42 0 -44 18 -44 17 -22 39 16 16 21 17 35 5 8 -8 31
-14 50 -14z m-161 -25 c0 -18 -21 -24 -42 -13 -17 8 -17 9 0 27 18 19 42 11
42 -14z m850 -5 c0 -5 -5 -10 -11 -10 -5 0 -7 5 -4 10 3 6 8 10 11 10 2 0 4
-4 4 -10z m-861 -109 c17 -11 7 -41 -13 -41 -19 0 -29 17 -22 35 6 17 15 18
35 6z m135 -10 c8 -12 -21 -34 -34 -26 -17 11 -11 35 9 35 11 0 22 -4 25 -9z
m-278 -59 c18 -70 39 -109 82 -149 l36 -34 -45 7 c-24 4 -82 19 -129 35 -47
15 -113 31 -147 35 -35 4 -63 11 -63 15 0 5 -13 9 -30 9 -16 0 -30 5 -30 11 0
7 16 9 50 4 32 -4 50 -3 50 3 0 6 -4 14 -10 17 -21 13 -10 27 17 21 14 -4 29
-4 32 1 10 13 84 61 111 72 47 19 62 10 76 -47z m525 -22 c10 -6 19 -19 19
-29 0 -10 7 -24 15 -31 13 -11 13 -16 -3 -42 -36 -63 -168 -108 -267 -91 l-50
8 55 29 c59 31 80 49 125 110 38 51 70 65 106 46z m-693 -162 c-5 -15 -58 -24
-58 -10 0 15 12 22 38 22 14 0 22 -5 20 -12z m97 -9 c22 -5 47 -13 55 -16 8
-3 19 -5 24 -4 5 1 4 -5 -4 -13 -14 -18 -46 -21 -55 -6 -3 6 -21 10 -38 10
-38 0 -62 13 -53 29 9 14 20 14 71 0z m-489 -39 c8 0 14 -7 14 -15 0 -9 13
-24 30 -33 26 -15 29 -21 24 -48 -4 -21 -1 -34 10 -43 9 -8 16 -24 16 -38 0
-13 4 -32 10 -42 8 -15 6 -17 -14 -14 -15 3 -27 16 -35 39 -11 29 -16 33 -37
28 -19 -5 -23 -3 -18 10 4 11 1 16 -11 16 -9 0 -14 4 -11 8 3 5 -1 20 -9 35
-12 23 -11 27 8 41 l22 15 -22 7 c-27 7 -27 8 -11 34 7 11 14 16 16 10 2 -5
10 -10 18 -10z m309 0 c3 -5 1 -10 -4 -10 -6 0 -11 5 -11 10 0 6 2 10 4 10 3
0 8 -4 11 -10z m325 0 c0 -5 6 -10 14 -10 8 0 16 -5 18 -12 3 -7 11 -9 24 -3
28 11 54 13 60 3 3 -4 -4 -8 -15 -8 -13 0 -19 -5 -15 -14 3 -8 1 -17 -4 -20
-11 -7 -78 19 -86 33 -3 5 -15 7 -26 4 -22 -6 -26 7 -8 25 15 15 38 16 38 2z
m211 -36 l24 -27 -27 7 c-21 5 -28 3 -28 -9 0 -17 -4 -18 -37 -9 -13 4 -23 11
-23 16 0 5 5 6 10 3 6 -3 10 2 10 13 0 41 36 44 71 6z m783 -30 c9 -22 -3 -32
-14 -14 -12 19 -12 30 -1 30 5 0 12 -7 15 -16z m-739 -14 c-3 -5 -11 -10 -16
-10 -6 0 -7 5 -4 10 3 6 11 10 16 10 6 0 7 -4 4 -10z m-497 -79 c3 -8 -1 -12
-9 -9 -7 2 -15 10 -17 17 -3 8 1 12 9 9 7 -2 15 -10 17 -17z m-388 -211 c0 -5
-4 -10 -10 -10 -5 0 -10 5 -10 10 0 6 5 10 10 10 6 0 10 -4 10 -10z m2150 -19
c0 -5 3 -16 6 -24 3 -8 -2 -17 -10 -20 -11 -4 -14 1 -14 24 1 16 5 29 10 29 4
0 8 -4 8 -9z m-5139 -71 c14 -8 19 -7 19 2 1 9 4 9 13 -2 7 -9 28 -15 52 -15
40 0 40 0 42 -40 1 -22 -1 -48 -4 -58 -4 -16 -7 -15 -25 8 -11 15 -32 31 -45
36 -14 5 -27 18 -30 28 -3 13 -11 17 -24 14 -24 -7 -25 -20 -1 -26 14 -4 14
-5 -3 -6 -11 0 -28 6 -38 13 -15 12 -16 18 -7 35 12 24 23 26 51 11z m-84 -6
c-3 -3 -12 -4 -19 -1 -8 3 -5 6 6 6 11 1 17 -2 13 -5z m5291 -39 c24 -53 50
-255 33 -255 -5 0 -12 6 -15 13 -5 10 -7 10 -12 0 -6 -14 -34 -18 -34 -5 0 4
-18 19 -39 32 -34 22 -40 31 -45 70 -7 53 10 109 47 151 31 35 47 34 65 -6z
m-5118 -118 c80 -71 105 -197 40 -197 -10 0 -28 -12 -39 -26 -18 -22 -33 -30
-64 -33 -5 -1 -5 -5 -2 -11 9 -15 41 -12 54 4 6 8 24 16 39 19 15 3 37 8 50
12 35 11 28 -22 -10 -45 -57 -34 -78 -52 -78 -68 0 -9 -7 -24 -16 -33 -9 -10
-16 -30 -16 -44 0 -17 -6 -25 -19 -25 -10 0 -21 -5 -24 -11 -13 -20 -9 -187 4
-203 8 -9 12 -35 9 -64 -2 -37 0 -48 10 -45 15 6 16 -9 0 -25 -9 -9 -9 -12 0
-12 7 0 25 -11 39 -24 15 -14 31 -22 35 -19 12 7 48 -26 48 -44 0 -7 5 -13 10
-13 6 0 10 -6 10 -13 0 -7 9 -23 21 -36 12 -12 19 -25 16 -27 -7 -7 -61 21
-76 40 -8 9 -20 16 -27 16 -8 0 -11 6 -7 17 5 13 2 15 -11 10 -10 -4 -15 -3
-11 3 3 6 -3 9 -15 7 -27 -3 -48 34 -88 158 -39 116 -43 180 -14 203 9 7 11
12 4 12 -16 0 -15 16 3 34 8 8 15 25 15 38 0 13 4 30 9 37 11 18 -5 55 -20 46
-5 -4 -9 1 -9 10 0 9 5 13 11 9 7 -4 6 3 -2 17 -7 13 -13 26 -12 29 1 3 4 57
8 120 6 99 12 143 31 209 6 20 52 5 94 -32z m5199 16 c0 -25 -1 -26 -9 -8 -12
27 -12 35 0 35 6 0 10 -12 9 -27z m29 -164 c6 -23 7 -51 3 -62 -7 -20 -8 -20
-15 4 -10 32 -14 99 -5 99 3 0 11 -19 17 -41z m-141 -21 c15 -6 39 -12 52 -12
30 -1 39 -22 11 -29 -12 -3 -20 -13 -20 -27 0 -16 4 -20 16 -16 11 4 15 2 12
-6 -3 -7 3 -26 13 -43 34 -55 41 -79 30 -97 -7 -11 -7 -19 0 -23 13 -9 7 -97
-7 -112 -16 -17 -24 5 -24 67 0 40 -5 52 -32 79 -17 17 -42 31 -55 31 -26 0
-30 21 -8 40 17 14 17 14 -64 96 -23 22 -41 44 -41 48 0 12 44 25 67 21 12 -3
35 -10 50 -17z m-2943 -217 c4 -5 22 -5 43 -1 21 5 44 5 54 -1 11 -6 20 -5 24
1 3 5 14 10 23 10 16 -1 16 -2 0 -14 -26 -19 -22 -26 11 -20 23 5 30 2 36 -15
4 -14 15 -21 30 -21 13 0 36 -5 52 -11 66 -25 172 -27 223 -4 40 18 40 18 64
-4 15 -14 30 -20 38 -15 7 4 5 -2 -6 -14 -10 -12 -22 -42 -27 -68 -8 -39 -6
-49 9 -61 16 -12 15 -13 -8 -11 -17 2 -25 9 -24 20 3 27 -61 43 -122 30 -32
-7 -53 -7 -60 -1 -8 6 -14 6 -18 0 -3 -5 0 -11 6 -14 7 -2 10 -8 5 -12 -4 -5
-18 -3 -31 4 -34 19 -54 10 -31 -13 14 -13 15 -20 6 -29 -10 -9 -15 -8 -25 6
-19 24 -27 21 -20 -7 5 -20 2 -25 -18 -28 l-23 -5 23 -9 23 -10 -20 -18 c-33
-30 -27 -48 10 -29 16 8 32 13 35 10 9 -8 -8 -37 -22 -37 -8 0 -14 -10 -14
-24 0 -32 58 -75 111 -81 60 -8 162 43 189 93 17 33 21 36 20 17 -1 -8 27 -35
36 -35 3 0 1 6 -5 14 -8 10 -8 16 3 25 11 9 22 6 51 -14 21 -14 44 -25 51 -25
8 0 14 -9 14 -20 0 -22 29 -27 47 -9 12 12 53 3 53 -11 0 -5 -8 -10 -17 -13
-13 -3 -12 -4 3 -3 12 0 29 -5 38 -13 9 -7 25 -11 36 -8 13 3 20 0 20 -9 0 -8
11 -19 25 -24 14 -5 25 -14 25 -20 0 -5 7 -10 16 -10 24 0 45 -32 32 -47 -16
-19 -68 -17 -68 3 0 12 -6 15 -21 11 -12 -3 -22 0 -26 9 -5 15 -66 35 -123 40
-19 2 -49 7 -66 12 -34 11 -128 -1 -149 -18 -8 -7 -18 -9 -23 -6 -5 3 -24 -1
-41 -10 -24 -12 -29 -19 -21 -29 9 -10 -2 -12 -55 -10 -38 2 -63 0 -60 -6 4
-5 12 -9 19 -9 8 0 17 -10 20 -22 6 -23 7 -23 21 -3 15 18 17 18 42 3 58 -35
47 -39 -99 -42 -35 -1 -52 -7 -68 -23 -19 -21 -70 -32 -70 -16 0 14 34 43 50
43 10 0 20 7 24 15 3 8 12 15 20 15 7 0 16 11 18 25 4 19 1 25 -13 25 -27 0
-50 11 -43 21 11 19 -55 13 -77 -7 -24 -21 -31 -17 -15 9 15 22 15 22 -29 19
-25 -2 -45 -9 -46 -16 0 -6 -4 -1 -9 12 -8 19 -12 21 -29 10 -22 -13 -19 -30
4 -21 8 3 15 1 15 -5 0 -5 -7 -12 -15 -16 -8 -3 -15 -1 -15 4 0 6 -16 10 -35
10 -19 0 -35 -4 -35 -10 0 -5 -7 -10 -15 -10 -8 0 -15 5 -15 11 0 8 -5 8 -15
-1 -8 -7 -15 -19 -15 -27 0 -11 -7 -13 -23 -9 -14 3 -32 -1 -43 -9 -10 -7 -29
-11 -40 -9 -12 3 -25 1 -28 -5 -4 -6 -13 -11 -21 -11 -8 0 -26 -5 -42 -12 -15
-6 -36 -10 -47 -9 -12 2 -16 -1 -11 -9 9 -14 -12 -30 -38 -30 -16 0 -16 2 -2
24 16 23 15 24 -14 31 -36 8 -49 23 -27 31 9 3 16 14 16 24 0 21 26 34 36 19
4 -6 19 2 36 20 17 17 36 31 42 31 6 0 23 8 36 17 14 10 38 16 56 14 29 -2 32
0 30 23 0 14 -4 26 -8 26 -5 0 -8 5 -8 10 0 18 22 10 27 -10 7 -26 32 -26 42
2 7 18 8 19 14 4 6 -14 10 -15 29 -4 13 6 41 13 62 15 21 2 45 8 52 14 8 6 26
9 41 6 20 -4 31 1 46 19 10 13 24 24 31 24 25 0 33 21 26 67 -6 35 -4 51 7 61
20 20 0 40 -22 22 -11 -9 -19 -10 -27 -2 -7 7 -4 14 10 23 20 12 20 15 5 31
-14 16 -14 18 -1 18 9 0 21 7 28 15 8 10 9 15 2 15 -6 0 -23 11 -38 25 -15 14
-24 25 -20 25 4 0 2 9 -5 21 l-11 21 -14 -21 c-13 -18 -22 -20 -57 -15 -23 4
-45 13 -49 20 -5 7 -17 10 -29 7 -16 -5 -20 -2 -17 13 2 11 -2 18 -9 17 -14
-3 -17 9 -6 20 10 10 61 8 67 -2z m606 -41 c0 -5 -7 -10 -15 -10 -8 0 -15 5
-15 10 0 6 7 10 15 10 8 0 15 -4 15 -10z m2070 -4 c0 -8 8 -17 18 -19 9 -2 2
-2 -16 0 -31 4 -32 3 -23 -16 7 -13 8 -22 1 -26 -5 -3 -10 2 -11 12 0 10 -2
28 -5 41 -3 17 1 22 16 22 11 0 20 -6 20 -14z m142 -117 c-2 -8 -9 -35 -15
-61 -7 -27 -16 -48 -20 -48 -5 0 -7 7 -3 15 3 8 8 37 12 65 4 31 11 49 18 47
6 -3 9 -11 8 -18z m-4813 -72 c8 -10 7 -17 -1 -25 -9 -9 -8 -15 4 -24 25 -20
32 -54 12 -62 -23 -9 -37 3 -24 19 8 10 7 15 -8 19 -15 5 -19 15 -17 44 1 20
3 38 4 40 3 6 20 1 30 -11z m5021 3 c0 -5 -4 -10 -10 -10 -5 0 -10 5 -10 10 0
6 5 10 10 10 6 0 10 -4 10 -10z m-280 -56 c0 -7 -13 -19 -30 -28 -26 -13 -30
-13 -30 0 0 9 4 13 9 9 14 -8 26 16 23 45 -3 24 -2 24 13 6 8 -11 15 -25 15
-32z m-210 -15 c0 -5 -4 -9 -10 -9 -5 0 -10 5 -10 10 0 6 -7 10 -15 10 -16 0
-20 21 -8 34 8 8 43 -29 43 -45z m50 41 c0 -5 -4 -10 -10 -10 -5 0 -10 5 -10
10 0 6 5 10 10 10 6 0 10 -4 10 -10z m-2060 -10 c0 -5 -4 -10 -9 -10 -6 0 -13
5 -16 10 -3 6 1 10 9 10 9 0 16 -4 16 -10z m45 -1 c11 -17 -1 -21 -15 -4 -8 9
-8 15 -2 15 6 0 14 -5 17 -11z m2030 -19 c3 -5 1 -10 -4 -10 -6 0 -11 5 -11
10 0 6 2 10 4 10 3 0 8 -4 11 -10z m-2425 -40 c0 -11 -7 -20 -15 -20 -8 0 -15
9 -15 20 0 11 7 20 15 20 8 0 15 -9 15 -20z m348 -10 c3 -21 2 -22 -12 -11
-19 16 -21 44 -3 39 6 -3 14 -15 15 -28z m82 0 c0 -5 -4 -10 -9 -10 -6 0 -13
5 -16 10 -3 6 1 10 9 10 9 0 16 -4 16 -10z m1950 -38 c0 -7 -4 -10 -10 -7 -5
3 -10 16 -10 28 0 18 2 19 10 7 5 -8 10 -21 10 -28z m157 8 c5 0 10 -7 10 -15
0 -8 -4 -15 -9 -15 -4 0 -8 5 -8 10 0 6 -9 10 -19 10 -10 0 -21 6 -24 14 -9
22 4 28 23 11 9 -8 21 -15 27 -15z m289 -18 c-4 -6 -15 -10 -26 -9 -18 1 -18
2 -3 19 17 19 41 10 29 -10z m-596 -12 c0 -5 -9 -14 -20 -20 -16 -8 -20 -8
-20 4 0 8 8 17 18 19 9 3 18 5 20 6 1 0 2 -3 2 -9z m297 -32 c-3 -8 -6 -5 -6
6 -1 11 2 17 5 13 3 -3 4 -12 1 -19z m-41 -37 c-4 -5 1 -16 9 -24 20 -21 19
-29 -4 -25 -20 3 -64 -38 -56 -52 2 -4 16 -6 31 -4 17 2 24 -2 21 -11 -3 -7
-1 -17 4 -22 5 -5 4 -16 -4 -27 -14 -20 -47 -12 -47 11 0 8 -9 17 -20 20 -17
5 -18 8 -8 21 10 12 10 16 1 19 -22 8 -14 22 20 37 30 14 31 15 10 21 -28 9
-30 25 -3 25 15 0 20 7 20 26 0 23 1 24 16 10 8 -9 13 -20 10 -25z m254 29 c0
-5 -4 -10 -10 -10 -5 0 -10 5 -10 10 0 6 5 10 10 10 6 0 10 -4 10 -10z m-3360
-20 c0 -5 -4 -10 -10 -10 -5 0 -10 5 -10 10 0 6 5 10 10 10 6 0 10 -4 10 -10z
m2776 -5 c-3 -8 -1 -15 4 -15 23 0 61 -21 55 -31 -5 -7 -13 -5 -24 5 -10 9
-25 16 -34 16 -10 0 -17 8 -17 20 0 11 5 20 11 20 6 0 9 -7 5 -15z m-9 -57
c-3 -8 -6 -5 -6 6 -1 11 2 17 5 13 3 -3 4 -12 1 -19z m-2637 -8 c0 -5 -8 -10
-17 -10 -15 0 -16 2 -3 10 19 12 20 12 20 0z m2864 -55 c-4 -8 -11 -15 -16
-15 -6 0 -5 6 2 15 7 8 14 15 16 15 2 0 1 -7 -2 -15z m-3064 -15 c0 -5 -5 -10
-11 -10 -6 0 -17 -7 -25 -15 -17 -17 -34 -20 -34 -6 0 6 12 16 28 24 34 18 42
20 42 7z m95 0 c-3 -5 -10 -10 -16 -10 -5 0 -9 5 -9 10 0 6 7 10 16 10 8 0 12
-4 9 -10z m525 0 c0 -5 -2 -10 -4 -10 -3 0 -8 5 -11 10 -3 6 -1 10 4 10 6 0
11 -4 11 -10z m2335 0 c3 -6 3 -31 -1 -56 l-7 -47 -13 39 c-14 39 -11 74 6 74
5 0 12 -5 15 -10z m-1355 -40 c0 -44 -7 -49 -36 -22 -10 10 -27 16 -36 14 -10
-2 -18 1 -18 6 0 14 22 30 50 35 14 2 28 5 33 6 4 0 7 -17 7 -39z m-780 26 c0
-3 -4 -8 -10 -11 -5 -3 -10 -1 -10 4 0 6 5 11 10 11 6 0 10 -2 10 -4z m-764
-13 c-4 -5 -12 -9 -17 -9 -5 -1 -13 -2 -19 -3 -16 -2 -12 -21 5 -21 8 0 15 -4
15 -10 0 -5 -7 -10 -15 -10 -8 0 -15 5 -15 10 0 6 -11 8 -25 4 -38 -10 -32 20
8 33 39 13 73 16 63 6z m3034 -4 c0 -5 4 -8 9 -5 9 6 21 -15 27 -46 5 -23 -11
-31 -25 -14 -7 8 -21 12 -31 9 -16 -4 -20 0 -20 19 0 24 16 48 32 48 4 0 8 -5
8 -11z m-3190 -42 c-27 -15 -36 -14 -25 2 3 6 16 11 28 11 21 0 21 -1 -3 -13z
m155 -27 c-3 -5 -11 -10 -16 -10 -6 0 -7 5 -4 10 3 6 11 10 16 10 6 0 7 -4 4
-10z m1885 -20 c0 -5 -4 -10 -10 -10 -5 0 -10 5 -10 10 0 6 5 10 10 10 6 0 10
-4 10 -10z m1044 -6 c4 -10 1 -14 -6 -12 -15 5 -23 28 -10 28 5 0 13 -7 16
-16z m142 -18 c12 -19 18 -39 14 -46 -5 -8 -9 -7 -13 4 -4 9 -15 16 -26 16
-10 0 -22 7 -25 16 -7 18 -26 9 -26 -12 0 -8 -9 -24 -20 -36 l-20 -22 0 26 c0
14 7 28 15 32 8 3 15 14 15 24 0 25 9 32 39 32 18 -1 32 -11 47 -34z m-232 8
c4 -9 3 -20 0 -23 -4 -3 -9 0 -11 7 -3 6 -11 12 -19 12 -9 0 -12 5 -9 10 10
16 32 12 39 -6z m-2744 -14 c0 -5 -4 -10 -10 -10 -5 0 -10 5 -10 10 0 6 5 10
10 10 6 0 10 -4 10 -10z m497 -1 c22 -8 24 -12 13 -20 -14 -8 -64 -3 -84 9 -5
3 -1 9 10 13 26 10 29 10 61 -2z m468 -7 c-3 -3 -11 0 -18 7 -9 10 -8 11 6 5
10 -3 15 -9 12 -12z m940 -22 c14 -16 16 -23 7 -32 -9 -9 -12 -9 -12 2 0 7 -7
22 -17 32 -9 10 -12 18 -6 18 5 0 18 -9 28 -20z m912 4 c-3 -3 -12 -4 -19 -1
-8 3 -5 6 6 6 11 1 17 -2 13 -5z m-59 -21 c-2 -10 2 -17 9 -16 18 4 28 -38 12
-48 -21 -13 -27 -11 -34 11 -3 11 -13 20 -21 20 -18 0 -18 15 2 34 21 21 36
20 32 -1z m-65 -8 c-3 -9 -8 -14 -10 -11 -3 3 -2 9 2 15 9 16 15 13 8 -4z
m-1653 -21 c0 -7 7 -17 15 -21 9 -5 16 -26 18 -48 2 -39 3 -40 42 -43 22 -1
51 -3 64 -5 30 -3 41 22 12 30 -12 3 -21 13 -21 23 0 15 -5 17 -32 11 -35 -8
-58 -5 -58 9 0 4 9 10 20 13 11 3 20 1 20 -5 0 -5 5 -6 10 -3 38 23 130 1 130
-32 0 -16 -17 -26 -25 -13 -3 5 -11 10 -18 10 -6 0 5 -11 24 -25 27 -21 64
-78 68 -105 1 -4 -15 -4 -34 -2 -21 3 -35 0 -35 -7 0 -6 7 -11 15 -11 8 0 15
-4 15 -10 0 -10 -20 -14 -50 -12 -24 2 -61 -21 -56 -35 8 -21 -13 -26 -39 -9
-32 21 -45 20 -45 -4 0 -13 -7 -20 -18 -20 -10 0 -24 -6 -31 -12 -11 -11 -14
-10 -18 0 -4 10 -8 10 -19 1 -11 -9 -34 -9 -102 1 -107 15 -302 23 -302 11 0
-12 -49 -20 -56 -10 -2 4 -11 6 -19 3 -8 -4 -28 -2 -44 4 -23 8 -31 7 -45 -9
-22 -26 -77 -25 -94 1 -7 11 -17 20 -23 20 -5 0 -8 -4 -4 -9 8 -14 -34 -18
-78 -7 -26 6 -36 13 -33 22 3 8 0 14 -6 14 -6 0 -9 2 -6 5 9 9 38 -7 38 -21 0
-8 9 -14 21 -14 14 0 19 5 16 13 -3 8 -1 20 4 28 8 12 10 12 18 0 6 -9 10 -10
16 -2 10 17 -2 41 -20 41 -21 0 -19 27 3 34 13 4 13 4 -3 3 -11 -1 -26 2 -33
7 -8 5 -18 4 -25 -3 -8 -8 -8 -11 2 -11 7 0 9 -4 6 -10 -9 -15 -25 -12 -25 5
0 11 -7 14 -22 10 -57 -13 -63 46 -7 78 38 21 49 22 49 0 0 -15 2 -15 18 0 9
8 28 17 42 19 17 2 26 10 28 25 3 17 -1 20 -16 16 -11 -2 -23 0 -27 7 -5 8
-10 7 -18 -4 -8 -10 -20 -14 -34 -10 -32 9 -29 34 3 34 14 0 41 7 60 16 27 13
37 14 49 4 11 -10 18 -9 30 4 9 8 30 18 48 21 32 6 418 -1 509 -9 28 -2 54 1
64 9 21 14 64 8 64 -11z m71 3 c-13 -13 -26 -3 -16 12 3 6 11 8 17 5 6 -4 6
-10 -1 -17z m1599 -48 c0 -14 -20 -11 -36 5 -24 24 -16 38 11 20 14 -9 25 -20
25 -25z m-2604 -116 c-10 -10 -19 5 -10 18 6 11 8 11 12 0 2 -7 1 -15 -2 -18z
m2704 -7 c0 -3 -4 -8 -10 -11 -5 -3 -10 -1 -10 4 0 6 5 11 10 11 6 0 10 -2 10
-4z m-2865 -56 c4 -6 10 -8 15 -5 5 3 11 1 14 -4 12 -19 -10 -19 -34 0 -14 10
-20 19 -13 19 6 0 15 -5 18 -10z m110 -40 c-3 -5 -10 -10 -16 -10 -5 0 -9 5
-9 10 0 6 7 10 16 10 8 0 12 -4 9 -10z m182 4 c-3 -3 -12 -4 -19 -1 -8 3 -5 6
6 6 11 1 17 -2 13 -5z m1368 -4 c-3 -5 -13 -10 -21 -10 -8 0 -12 5 -9 10 3 6
13 10 21 10 8 0 12 -4 9 -10z m1242 -38 c-13 -3 -17 -10 -14 -23 7 -25 -17
-42 -44 -34 -22 7 -22 8 -4 21 10 8 16 14 12 14 -4 0 0 11 9 25 14 21 19 23
38 13 19 -11 19 -12 3 -16z m-2677 -2 c0 -5 -4 -10 -10 -10 -5 0 -10 5 -10 10
0 6 5 10 10 10 6 0 10 -4 10 -10z m-140 -38 c0 -13 -12 -22 -22 -16 -10 6 -1
24 13 24 5 0 9 -4 9 -8z m470 -2 c0 -13 -11 -13 -30 0 -12 8 -11 10 8 10 12 0
22 -4 22 -10z m1050 0 c0 -5 -7 -10 -15 -10 -8 0 -15 5 -15 10 0 6 7 10 15 10
8 0 15 -4 15 -10z m1160 -19 c0 -12 -20 -25 -27 -18 -7 7 6 27 18 27 5 0 9 -4
9 -9z m-252 -80 c26 -22 29 -43 6 -34 -14 5 -15 3 -4 -17 14 -26 -2 -43 -32
-36 -10 2 -18 0 -18 -5 0 -5 -7 -9 -16 -9 -11 0 -14 5 -10 16 3 9 6 20 6 25 0
5 9 9 20 9 16 0 20 7 20 35 0 41 0 41 28 16z m77 -11 c-3 -5 -12 -10 -18 -10
-7 0 -6 4 3 10 19 12 23 12 15 0z m165 -19 c0 -5 -7 -14 -15 -21 -16 -14 -18
-10 -9 14 6 17 24 22 24 7z m-1935 -47 c-36 -27 -55 -36 -50 -22 5 13 41 35
60 36 6 1 1 -6 -10 -14z m1955 -14 c8 -14 8 -26 1 -38 -9 -14 -10 -13 -8 8 1
16 -3 24 -10 23 -14 -3 -17 9 -6 20 9 10 11 9 23 -13z m-1790 -10 c0 -5 -5
-10 -11 -10 -5 0 -7 5 -4 10 3 6 8 10 11 10 2 0 4 -4 4 -10z m80 -5 c-7 -8
-20 -15 -29 -15 -13 1 -13 3 3 15 26 19 42 19 26 0z m-190 -15 c0 -5 -7 -10
-15 -10 -8 0 -18 0 -22 -1 -4 0 -9 4 -11 10 -2 6 8 11 22 11 14 0 26 -4 26
-10z m1520 -10 c0 -5 -4 -10 -10 -10 -5 0 -10 5 -10 10 0 6 5 10 10 10 6 0 10
-4 10 -10z m44 -5 c-4 -8 -10 -12 -15 -9 -11 6 -2 24 11 24 5 0 7 -7 4 -15z
m310 -14 c8 -13 -3 -19 -24 -14 -11 3 -17 9 -14 14 7 11 31 12 38 0z m-838
-28 c-10 -10 -19 5 -10 18 6 11 8 11 12 0 2 -7 1 -15 -2 -18z m484 12 c0 -8
-6 -15 -14 -15 -17 0 -28 14 -19 24 12 12 33 6 33 -9z m-101 -51 c2 -2 2 -6 0
-9 -8 -7 -49 7 -49 17 0 8 38 2 49 -8z m-3298 -17 c-13 -13 -26 -3 -16 12 3 6
11 8 17 5 6 -4 6 -10 -1 -17z m188 -26 c-3 -6 -10 -7 -18 -2 -7 5 -10 14 -6
21 9 14 29 -2 24 -19z m2826 19 c3 -5 -3 -10 -14 -10 -12 0 -21 5 -21 10 0 6
6 10 14 10 8 0 18 -4 21 -10z m-55 -37 c0 -10 6 -13 18 -9 15 6 15 5 2 -7 -24
-24 -60 -31 -60 -13 0 9 -4 16 -10 16 -18 0 -11 15 13 26 26 12 37 9 37 -13z
m-110 -13 c7 -13 5 -21 -5 -30 -12 -10 -15 -9 -15 4 0 9 -10 21 -22 26 -13 5
-17 9 -10 9 7 1 11 5 8 10 -4 5 3 7 14 4 11 -3 25 -13 30 -23z m-40 -33 c0 -7
16 -19 35 -26 36 -12 44 -25 24 -36 -6 -5 -4 -12 8 -21 16 -12 16 -13 1 -14
-9 0 -20 5 -23 10 -3 6 -15 10 -27 10 -14 0 -18 5 -14 15 3 8 -4 21 -16 29
-12 9 -18 21 -15 30 8 19 27 21 27 3z m270 -18 c0 -6 -4 -7 -10 -4 -5 3 -10
11 -10 16 0 6 5 7 10 4 6 -3 10 -11 10 -16z m580 -29 c-31 -39 -50 -50 -50
-29 0 14 55 69 70 69 6 0 -3 -18 -20 -40z m-706 14 c26 -10 18 -24 -14 -24
-34 0 -40 -15 -10 -25 21 -7 28 -25 10 -25 -5 0 -10 4 -10 9 0 5 -8 12 -19 16
-22 7 -23 37 -1 47 20 9 26 9 44 2z m-194 -14 c0 -5 -2 -10 -4 -10 -3 0 -8 5
-11 10 -3 6 -1 10 4 10 6 0 11 -4 11 -10z m-2730 -10 c0 -5 -7 -10 -15 -10 -8
0 -15 5 -15 10 0 6 7 10 15 10 8 0 15 -4 15 -10z m3000 -4 c0 -3 -4 -8 -10
-11 -5 -3 -10 -1 -10 4 0 6 5 11 10 11 6 0 10 -2 10 -4z m-2493 -68 c-2 -17
-9 -34 -15 -36 -15 -5 -16 14 -1 23 6 4 8 13 5 20 -4 12 2 25 11 25 2 0 2 -14
0 -32z m2283 -1 c0 -8 -9 -22 -19 -31 -24 -22 -34 0 -12 26 18 21 31 23 31 5z
m-2200 -67 c0 -5 -4 -10 -10 -10 -5 0 -10 5 -10 10 0 6 5 10 10 10 6 0 10 -4
10 -10z m125 -64 c20 8 27 -12 10 -26 -12 -10 -15 -10 -15 0 0 8 -8 10 -24 6
-14 -3 -28 -2 -31 4 -3 5 -16 10 -28 10 -16 0 -18 3 -8 9 7 5 29 5 48 0 20 -4
41 -5 48 -3z m5 -97 c0 -14 -17 -10 -23 5 -4 10 -1 13 9 9 7 -3 14 -9 14 -14z
m1663 -10 c-5 -18 -18 -18 -18 -1 0 4 -4 12 -8 19 -5 7 -1 10 12 6 13 -3 17
-11 14 -24z m-1573 -39 c0 -5 -4 -10 -10 -10 -5 0 -10 5 -10 10 0 6 5 10 10
10 6 0 10 -4 10 -10z m30 6 c0 -3 -4 -8 -10 -11 -5 -3 -10 -1 -10 4 0 6 5 11
10 11 6 0 10 -2 10 -4z m50 -76 c0 -5 -2 -10 -4 -10 -3 0 -8 5 -11 10 -3 6 -1
10 4 10 6 0 11 -4 11 -10z m450 -14 c0 -3 -4 -8 -10 -11 -5 -3 -10 -1 -10 4 0
6 5 11 10 11 6 0 10 -2 10 -4z m-1460 -145 c0 -6 -4 -13 -10 -16 -5 -3 -10 1
-10 9 0 9 5 16 10 16 6 0 10 -4 10 -9z m-13 -183 c-3 -7 -5 -2 -5 12 0 14 2
19 5 13 2 -7 2 -19 0 -25z m-1 -55 c-11 -11 -19 6 -11 24 8 17 8 17 12 0 3
-10 2 -21 -1 -24z m1 -105 c-3 -8 -6 -5 -6 6 -1 11 2 17 5 13 3 -3 4 -12 1
-19z m3478 -48 c-3 -5 -11 -10 -16 -10 -6 0 -7 5 -4 10 3 6 11 10 16 10 6 0 7
-4 4 -10z m-2735 -10 c0 -5 -2 -10 -4 -10 -3 0 -8 5 -11 10 -3 6 -1 10 4 10 6
0 11 -4 11 -10z m150 -10 c14 -11 20 -20 13 -20 -18 0 -63 22 -63 32 0 14 24
8 50 -12z m2640 10 c0 -5 -4 -10 -10 -10 -5 0 -10 5 -10 10 0 6 5 10 10 10 6
0 10 -4 10 -10z m-3120 -20 c0 -5 -7 -10 -15 -10 -8 0 -15 5 -15 10 0 6 7 10
15 10 8 0 15 -4 15 -10z m3044 -22 c16 -11 -6 -10 -23 1 -8 5 -10 14 -5 22 6
10 9 10 12 -1 3 -8 10 -18 16 -22z m-3071 -13 c4 -8 2 -17 -3 -20 -6 -4 -10
-4 -10 -1 0 2 -3 11 -6 20 -3 9 -2 16 4 16 5 0 12 -7 15 -15z m367 -5 c0 -5
-4 -10 -9 -10 -6 0 -13 5 -16 10 -3 6 1 10 9 10 9 0 16 -4 16 -10z m-55 -10
c3 -5 1 -10 -4 -10 -6 0 -11 5 -11 10 0 6 2 10 4 10 3 0 8 -4 11 -10z m1555
-40 c-20 -13 -33 -13 -25 0 3 6 14 10 23 10 15 0 15 -2 2 -10z m-1935 -10 c3
-5 1 -10 -4 -10 -6 0 -11 5 -11 10 0 6 2 10 4 10 3 0 8 -4 11 -10z m465 0 c11
-7 7 -10 -17 -10 -19 0 -33 -5 -33 -12 0 -6 -2 -9 -5 -6 -3 3 -3 13 1 22 7 18
31 21 54 6z m-75 -10 c3 -5 1 -10 -4 -10 -6 0 -11 5 -11 10 0 6 2 10 4 10 3 0
8 -4 11 -10z m1645 0 c0 -5 -5 -10 -11 -10 -5 0 -7 5 -4 10 3 6 8 10 11 10 2
0 4 -4 4 -10z m850 -20 c0 -5 -2 -10 -4 -10 -3 0 -8 5 -11 10 -3 6 -1 10 4 10
6 0 11 -4 11 -10z m-165 -10 c-3 -5 -10 -10 -16 -10 -5 0 -9 5 -9 10 0 6 7 10
16 10 8 0 12 -4 9 -10z m-562 -22 c-13 -6 -23 -15 -23 -20 0 -5 -5 -6 -11 -3
-13 8 19 35 41 34 9 0 6 -5 -7 -11z m631 -33 c-14 -14 -30 -22 -36 -19 -6 4
-14 0 -19 -7 -6 -11 -9 -8 -9 8 0 26 24 42 62 43 l27 0 -25 -25z m-567 -1 c-3
-3 -12 -4 -19 -1 -8 3 -5 6 6 6 11 1 17 -2 13 -5z m378 -54 c3 -5 1 -10 -4
-10 -6 0 -11 5 -11 10 0 6 2 10 4 10 3 0 8 -4 11 -10z m550 -32 c-8 -19 -38
-29 -56 -17 -15 9 -15 8 21 32 26 18 44 10 35 -15z m-855 -133 c-7 -9 -15 -13
-17 -11 -7 7 7 26 19 26 6 0 6 -6 -2 -15z m-1436 -31 c10 -26 7 -44 -8 -44
-20 0 -26 12 -19 38 6 26 18 28 27 6z m1391 6 c3 -5 -1 -10 -9 -10 -9 0 -16 5
-16 10 0 6 4 10 9 10 6 0 13 -4 16 -10z m-5 -80 c0 -5 -5 -10 -11 -10 -5 0 -7
5 -4 10 3 6 8 10 11 10 2 0 4 -4 4 -10z m5 -80 c-3 -5 -10 -10 -16 -10 -5 0
-9 5 -9 10 0 6 7 10 16 10 8 0 12 -4 9 -10z m-1125 -59 c0 -11 -5 -10 -20 4
-11 10 -20 22 -20 27 0 4 9 3 20 -4 11 -7 20 -19 20 -27z m1255 19 c3 -5 2
-10 -4 -10 -5 0 -13 5 -16 10 -3 6 -2 10 4 10 5 0 13 -4 16 -10z m-225 -20 c0
-5 -10 -10 -22 -9 -22 0 -22 1 -3 9 11 5 21 9 23 9 1 1 2 -3 2 -9z m-974 -27
c-8 -8 -36 5 -36 17 0 7 6 7 21 0 11 -7 18 -14 15 -17z m1308 -50 c-21 -15
-34 -17 -34 -4 0 5 9 13 20 16 11 3 20 12 21 18 0 7 3 6 6 -2 3 -8 -2 -20 -13
-28z m-154 -43 c0 -5 -4 -10 -10 -10 -5 0 -10 5 -10 10 0 6 5 10 10 10 6 0 10
-4 10 -10z m-163 -6 c-3 -3 -12 -4 -19 -1 -8 3 -5 6 6 6 11 1 17 -2 13 -5z
m229 -9 c-21 -16 -32 -13 -21 4 3 6 14 11 23 11 15 -1 15 -2 -2 -15z m-319 -1
c-3 -3 -12 -4 -19 -1 -8 3 -5 6 6 6 11 1 17 -2 13 -5z m408 -4 c-3 -5 -13 -10
-21 -10 -8 0 -14 5 -14 10 0 6 9 10 21 10 11 0 17 -4 14 -10z m-1155 -35 c7
-9 10 -18 7 -22 -8 -7 -37 15 -37 28 0 14 16 11 30 -6z m1010 -5 c0 -5 -9 -10
-21 -10 -11 0 -17 5 -14 10 3 6 13 10 21 10 8 0 14 -4 14 -10z m75 -10 c3 -5
1 -10 -4 -10 -6 0 -11 5 -11 10 0 6 2 10 4 10 3 0 8 -4 11 -10z m-1155 -30 c0
-5 -2 -10 -4 -10 -3 0 -8 5 -11 10 -3 6 -1 10 4 10 6 0 11 -4 11 -10z m1022
-12 c-6 -6 -15 -8 -19 -4 -4 4 -1 11 7 16 19 12 27 3 12 -12z m-352 -8 c0 -5
-4 -10 -10 -10 -5 0 -10 5 -10 10 0 6 5 10 10 10 6 0 10 -4 10 -10z m-462 -32
c-3 -7 -11 -13 -18 -13 -7 0 -15 6 -17 13 -3 7 4 12 17 12 13 0 20 -5 18 -12z
m52 -34 c0 -17 -22 -14 -28 4 -2 7 3 12 12 12 9 0 16 -7 16 -16z m630 -3 c0
-6 -4 -13 -10 -16 -5 -3 -10 1 -10 9 0 9 5 16 10 16 6 0 10 -4 10 -9z m198
-39 c2 -7 -5 -12 -17 -12 -11 0 -23 -5 -26 -10 -9 -15 -25 -2 -19 15 10 24 54
29 62 7z m-528 -2 c-20 -13 -33 -13 -25 0 3 6 14 10 23 10 15 0 15 -2 2 -10z
m-173 -6 c-3 -3 -12 -4 -19 -1 -8 3 -5 6 6 6 11 1 17 -2 13 -5z m596 -944 c-3
-11 -9 -20 -14 -20 -14 0 -11 28 4 33 6 3 13 6 14 6 0 1 -1 -8 -4 -19z m227
-350 c0 -11 -4 -20 -10 -20 -5 0 -10 9 -10 20 0 11 5 20 10 20 6 0 10 -9 10
-20z"/>
<path d="M5795 6660 c3 -5 13 -10 21 -10 8 0 12 5 9 10 -3 6 -13 10 -21 10 -8
0 -12 -4 -9 -10z"/>
<path d="M1600 5110 c0 -5 5 -10 10 -10 6 0 10 5 10 10 0 6 -4 10 -10 10 -5 0
-10 -4 -10 -10z"/>
<path d="M1615 4610 c3 -5 8 -10 11 -10 2 0 4 5 4 10 0 6 -5 10 -11 10 -5 0
-7 -4 -4 -10z"/>
<path d="M4066 4869 c-22 -22 -10 -25 17 -5 10 8 15 16 10 19 -4 2 -17 -4 -27
-14z"/>
<path d="M3440 4420 c-8 -5 -11 -12 -7 -16 4 -4 13 -2 19 4 15 15 7 24 -12 12z"/>
<path d="M3495 4410 c3 -5 8 -10 11 -10 2 0 4 5 4 10 0 6 -5 10 -11 10 -5 0
-7 -4 -4 -10z"/>
<path d="M6446 4462 c-3 -6 -1 -14 5 -17 15 -10 25 3 12 16 -7 7 -13 7 -17 1z"/>
<path d="M6405 4390 c3 -5 8 -10 11 -10 2 0 4 5 4 10 0 6 -5 10 -11 10 -5 0
-7 -4 -4 -10z"/>
<path d="M3830 4130 c20 -13 33 -13 25 0 -3 6 -14 10 -23 10 -15 0 -15 -2 -2
-10z"/>
<path d="M5325 9690 c3 -5 8 -10 11 -10 2 0 4 5 4 10 0 6 -5 10 -11 10 -5 0
-7 -4 -4 -10z"/>
<path d="M4495 8610 c-3 -11 -11 -20 -17 -20 -6 0 -9 -3 -6 -6 9 -8 48 19 48
33 0 20 -18 15 -25 -7z"/>
<path d="M4990 8575 c0 -9 9 -15 21 -15 18 0 19 2 9 15 -7 8 -16 15 -21 15 -5
0 -9 -7 -9 -15z"/>
<path d="M5045 8571 c-3 -5 -1 -12 5 -16 13 -8 50 3 50 16 0 12 -47 12 -55 0z"/>
<path d="M4966 8533 c-11 -11 -6 -23 9 -23 8 0 15 4 15 9 0 13 -16 22 -24 14z"/>
<path d="M3170 8424 c0 -8 5 -12 10 -9 6 4 8 11 5 16 -9 14 -15 11 -15 -7z"/>
<path d="M3130 8350 c-12 -17 -20 -34 -17 -37 10 -9 27 8 27 27 0 10 6 20 13
23 6 2 9 7 6 11 -4 4 -17 -7 -29 -24z"/>
<path d="M2770 8156 c0 -9 5 -16 10 -16 6 0 10 4 10 9 0 6 -4 13 -10 16 -5 3
-10 -1 -10 -9z"/>
<path d="M5395 8090 c3 -5 8 -10 11 -10 2 0 4 5 4 10 0 6 -5 10 -11 10 -5 0
-7 -4 -4 -10z"/>
<path d="M5450 8052 c0 -12 19 -26 26 -19 2 2 -2 10 -11 17 -9 8 -15 8 -15 2z"/>
<path d="M2520 7879 l-25 -21 25 7 c31 9 33 11 28 25 -2 7 -13 3 -28 -11z"/>
<path d="M5370 7835 c7 -8 17 -15 22 -15 5 0 3 7 -6 15 -8 8 -18 15 -22 15 -3
0 -1 -7 6 -15z"/>
<path d="M5382 7778 c3 -7 13 -15 22 -16 12 -3 17 1 14 10 -3 7 -13 15 -22 16
-12 3 -17 -1 -14 -10z"/>
<path d="M2550 7760 c0 -5 7 -10 15 -10 8 0 15 5 15 10 0 6 -7 10 -15 10 -8 0
-15 -4 -15 -10z"/>
<path d="M2580 7680 c0 -5 5 -10 11 -10 5 0 7 5 4 10 -3 6 -8 10 -11 10 -2 0
-4 -4 -4 -10z"/>
<path d="M2377 7662 c-32 -4 -31 -25 1 -30 13 -2 25 3 28 13 8 20 6 21 -29 17z"/>
<path d="M2554 7595 c-9 -22 1 -29 15 -11 8 10 9 16 1 21 -5 3 -13 -1 -16 -10z"/>
<path d="M2562 7528 c-14 -14 -16 -32 -3 -24 5 3 14 -1 21 -9 18 -22 30 -9 17
20 -14 28 -18 30 -35 13z"/>
<path d="M5501 7514 c0 -11 3 -14 6 -6 3 7 2 16 -1 19 -3 4 -6 -2 -5 -13z"/>
<path d="M2525 7500 c-3 -5 -1 -10 4 -10 6 0 11 5 11 10 0 6 -2 10 -4 10 -3 0
-8 -4 -11 -10z"/>
<path d="M5735 7340 c-3 -5 -2 -10 4 -10 5 0 13 5 16 10 3 6 2 10 -4 10 -5 0
-13 -4 -16 -10z"/>
<path d="M2250 7289 c0 -5 5 -7 10 -4 6 3 10 8 10 11 0 2 -4 4 -10 4 -5 0 -10
-5 -10 -11z"/>
<path d="M5760 7230 c14 -10 26 -17 29 -15 6 7 -27 35 -41 35 -7 0 -2 -9 12
-20z"/>
<path d="M2570 7200 c0 -5 5 -10 10 -10 6 0 10 5 10 10 0 6 -4 10 -10 10 -5 0
-10 -4 -10 -10z"/>
<path d="M2615 7200 c4 -6 11 -8 16 -5 14 9 11 15 -7 15 -8 0 -12 -5 -9 -10z"/>
<path d="M5798 7193 c7 -3 16 -2 19 1 4 3 -2 6 -13 5 -11 0 -14 -3 -6 -6z"/>
<path d="M2280 7170 c-9 -6 -10 -10 -3 -10 6 0 15 5 18 10 8 12 4 12 -15 0z"/>
<path d="M2140 7162 c0 -7 -7 -9 -17 -5 -15 5 -16 3 -5 -8 9 -10 15 -10 24 -1
6 6 9 15 5 19 -4 3 -7 1 -7 -5z"/>
<path d="M2065 7151 c-6 -11 9 -23 19 -14 9 9 7 23 -3 23 -6 0 -12 -4 -16 -9z"/>
<path d="M2654 7149 c-3 -6 -17 -9 -30 -6 -13 2 -24 0 -24 -4 0 -5 -7 -9 -16
-9 -8 0 -12 5 -9 10 12 19 -16 10 -50 -16 -19 -14 -39 -23 -45 -19 -15 9 -12
-11 5 -28 13 -13 12 -16 -3 -23 -28 -13 -65 -14 -79 -2 -9 7 -13 7 -13 -1 0
-6 -6 -11 -14 -11 -8 0 -18 -4 -21 -10 -4 -6 6 -7 25 -4 23 5 30 3 30 -9 0
-12 -14 -18 -50 -23 -27 -4 -55 -13 -61 -20 -15 -18 -29 -18 -29 1 0 12 -7 14
-27 9 -37 -9 -38 -11 -23 -29 11 -13 8 -15 -20 -15 -28 0 -31 2 -20 15 10 12
10 15 -1 15 -18 0 -39 -34 -30 -48 5 -8 23 -9 66 -2 83 14 83 14 45 -20 -19
-16 -30 -29 -23 -30 6 0 15 5 18 10 3 6 14 10 22 10 13 0 10 -7 -12 -30 -16
-16 -25 -30 -20 -30 5 0 -6 -11 -24 -24 -18 -14 -40 -34 -48 -45 -13 -20 -12
-21 14 -21 l28 -1 -30 -13 c-17 -7 -37 -21 -45 -31 -14 -16 -12 -17 20 -10 52
11 52 11 57 -2 3 -7 -2 -13 -11 -13 -9 0 -21 -9 -28 -20 -8 -12 -24 -20 -39
-20 -21 0 -26 -4 -22 -18 3 -13 14 -18 41 -18 20 0 51 -4 68 -8 28 -7 37 -4
70 27 26 23 53 37 79 40 22 4 41 6 43 7 1 0 1 5 0 11 -4 14 57 37 100 38 25 1
32 5 32 21 0 14 10 22 37 29 20 6 40 8 45 5 5 -3 28 6 53 19 24 14 45 21 47
16 2 -6 18 -3 35 6 25 12 37 14 53 5 21 -11 44 -5 35 10 -3 5 16 12 42 16 35
5 65 1 120 -15 40 -11 84 -21 97 -21 14 0 28 -4 31 -10 3 -5 14 -10 25 -10 10
0 20 -7 24 -15 3 -8 13 -15 21 -15 23 0 46 -26 39 -44 -4 -10 -1 -16 7 -16 12
0 12 -2 0 -9 -7 -5 -11 -13 -7 -19 3 -6 0 -13 -6 -15 -8 -4 -4 -8 10 -12 12
-4 22 -11 22 -16 0 -5 6 -6 14 -3 8 3 17 1 21 -5 4 -8 -18 -11 -67 -11 -171
-1 -482 -67 -621 -131 -24 -11 -30 -10 -50 7 -12 11 -34 25 -48 31 -21 9 -27
8 -37 -8 -7 -10 -23 -19 -37 -19 -14 0 -25 -5 -25 -11 0 -8 -4 -8 -14 1 -8 6
-13 17 -10 24 3 7 -2 19 -11 26 -12 10 -15 10 -15 -3 0 -22 -20 -32 -31 -16
-6 10 -9 11 -9 2 0 -7 -7 -13 -15 -13 -8 0 -15 -7 -15 -16 0 -12 6 -15 23 -9
57 18 67 18 67 0 0 -11 -5 -15 -15 -11 -9 3 -15 0 -15 -8 0 -7 -18 -21 -40
-31 -22 -10 -40 -24 -40 -32 0 -7 -6 -16 -14 -19 -8 -3 -12 -13 -9 -25 4 -13
0 -19 -11 -19 -11 0 -16 -9 -16 -26 0 -14 -9 -33 -20 -42 -14 -12 -21 -31 -23
-67 -2 -28 -7 -56 -11 -64 -9 -14 3 -31 25 -35 24 -3 80 -62 74 -77 -4 -10 3
-14 25 -15 16 -1 27 3 24 7 -3 5 -1 9 5 9 5 0 11 -4 13 -8 2 -4 18 -18 36 -31
25 -17 36 -21 45 -12 17 17 29 13 22 -9 -9 -29 15 -48 71 -54 26 -3 50 -10 53
-14 14 -21 42 -20 61 0 18 20 20 20 20 4 0 -12 5 -16 16 -12 8 3 26 -1 39 -10
14 -9 30 -12 37 -8 16 10 68 6 83 -6 7 -6 16 -5 24 3 7 7 14 8 19 2 4 -6 67
-10 152 -9 173 0 229 17 349 104 29 22 58 37 62 34 5 -3 9 1 9 9 0 7 11 24 25
37 27 25 32 21 13 -10 -18 -28 -1 -37 22 -13 10 12 17 23 14 26 -3 2 10 10 28
18 42 16 52 31 32 46 -13 10 -11 14 15 29 17 10 31 22 31 26 0 4 7 8 15 8 22
0 9 -25 -52 -104 -31 -40 -53 -78 -53 -93 0 -23 -16 -62 -29 -73 -4 -3 -12
-17 -18 -32 -10 -22 -10 -28 0 -28 16 1 57 35 57 48 0 14 28 23 35 12 4 -6 14
-6 27 1 18 10 20 9 15 -6 -5 -11 -3 -15 5 -12 7 2 12 12 10 22 -3 13 1 16 13
11 9 -3 20 -6 24 -6 18 0 3 -47 -21 -68 -31 -26 -36 -42 -13 -42 26 0 24 -78
-2 -97 -10 -8 -12 -13 -5 -13 18 0 14 -29 -8 -57 -11 -14 -22 -40 -26 -59 -3
-19 -10 -37 -15 -40 -5 -3 -9 -12 -9 -20 0 -8 -9 -34 -20 -56 -11 -23 -20 -47
-20 -54 0 -6 -7 -17 -15 -24 -19 -16 -19 -30 0 -30 9 0 19 8 22 18 4 9 15 23
25 30 10 7 18 20 18 28 0 8 6 14 14 14 8 0 17 12 20 26 5 17 12 24 21 20 8 -3
14 -2 14 2 -4 25 3 34 21 29 11 -3 20 0 20 6 0 6 8 19 17 29 12 13 14 21 5 30
-7 7 -7 19 -1 35 6 15 5 31 -1 42 -10 20 -4 31 17 31 10 0 12 -6 8 -20 -5 -15
-2 -20 13 -20 23 0 53 31 36 37 -6 2 -20 11 -30 19 -18 15 -18 15 3 11 19 -4
21 -2 13 13 -13 23 -13 30 0 30 5 0 16 -16 24 -35 16 -37 32 -49 21 -15 -8 25
3 60 18 60 18 0 43 43 28 48 -18 6 -13 19 19 52 17 18 33 45 37 61 3 16 9 29
13 29 3 0 7 15 7 33 0 17 4 45 8 60 5 18 3 38 -6 53 -10 20 -10 27 -1 33 7 4
12 21 12 37 0 16 1 48 4 71 2 23 1 41 -2 40 -11 -3 -12 10 -6 43 4 16 10 30
15 30 15 0 10 28 -6 34 -10 3 -15 19 -15 44 0 23 -6 45 -15 52 -18 15 -20 37
-2 37 19 0 107 45 107 55 0 4 -21 -1 -47 -11 -29 -11 -61 -16 -81 -14 -36 6
-38 22 -4 34 18 7 22 5 22 -11 0 -17 2 -17 25 6 29 29 31 34 10 34 -18 0 -19
4 -2 32 16 29 45 58 56 58 5 0 12 6 14 13 3 7 6 4 6 -7 1 -15 4 -16 16 -6 8 7
15 18 15 24 0 6 11 28 25 49 22 32 23 37 9 37 -10 0 -25 -6 -33 -14 -23 -19
-78 -28 -84 -13 -6 15 30 60 61 76 12 6 22 16 22 20 0 19 -34 20 -60 1 -32
-22 -40 -25 -40 -10 0 6 7 10 15 10 8 0 15 5 15 11 0 12 -42 2 -51 -13 -9 -14
-59 -38 -80 -38 -22 0 -24 11 -7 28 9 9 8 12 -4 12 -9 0 -18 5 -20 12 -7 21
-36 0 -43 -31 -8 -35 -21 -40 -30 -11 -3 11 -10 20 -14 20 -5 0 -14 13 -21 30
-7 16 -19 35 -28 42 -13 11 -15 10 -10 -9 8 -29 -8 -41 -17 -13 -3 11 -21 29
-38 41 -18 12 -42 32 -55 43 -15 14 -38 21 -66 22 -24 1 -54 8 -67 17 -13 9
-55 23 -92 31 -37 9 -81 23 -97 31 -36 19 -40 19 -40 0 0 -18 -1 -18 -42 -1
-36 16 -149 37 -188 36 -14 -1 -40 -1 -58 -1 -21 0 -30 -4 -26 -11 5 -8 -2 -9
-22 -3 -16 4 -50 7 -76 6 -40 -1 -46 2 -41 15 6 17 7 17 -54 -1 -14 -4 -23 -2
-23 4 0 14 -27 14 -36 0z m439 -76 c-7 -2 -19 -2 -25 0 -7 3 -2 5 12 5 14 0
19 -2 13 -5z m-488 -273 c-3 -5 -13 -10 -21 -10 -8 0 -12 5 -9 10 3 6 13 10
21 10 8 0 12 -4 9 -10z m1325 -34 c0 -3 -4 -8 -10 -11 -5 -3 -10 -1 -10 4 0 6
5 11 10 11 6 0 10 -2 10 -4z m-1504 -33 c-8 -9 -94 -32 -116 -32 -24 0 73 38
99 38 13 1 21 -2 17 -6z m632 -232 c0 -21 -3 -43 -7 -48 -8 -13 -112 -31 -183
-32 -45 0 -58 3 -58 14 0 8 5 15 11 15 6 0 8 9 4 20 -7 22 0 26 90 53 28 9 71
16 97 16 l47 1 -1 -39z m62 -28 c0 5 5 5 11 1 8 -4 8 -9 -1 -18 -8 -8 -13 -7
-20 4 -5 8 -10 20 -10 25 0 6 5 3 10 -5 5 -8 10 -11 10 -7z m90 -13 c0 -5 -4
-10 -10 -10 -5 0 -10 5 -10 10 0 6 5 10 10 10 6 0 10 -4 10 -10z m532 -130
c-5 -37 -13 -43 -47 -34 -27 7 -35 24 -10 24 8 0 15 7 15 15 0 14 30 36 41 30
3 -2 4 -18 1 -35z m-704 7 c2 -12 -3 -17 -17 -17 -12 0 -21 6 -21 13 0 31 32
34 38 4z m132 8 c0 -9 -7 -18 -16 -22 -18 -7 -39 11 -30 26 11 17 46 13 46 -4z
m211 -22 c30 -9 68 -27 85 -40 17 -13 38 -23 47 -23 21 0 21 0 2 -38 -15 -29
-50 -51 -62 -38 -3 2 -55 -13 -116 -35 -61 -21 -126 -39 -145 -39 l-34 0 47
45 c50 49 84 113 85 158 0 33 15 34 91 10z m-524 -82 c31 -54 115 -131 142
-131 9 0 25 -6 35 -13 16 -11 13 -13 -26 -15 -23 -2 -50 -5 -58 -7 -27 -8
-153 21 -192 44 -39 24 -83 86 -72 103 6 9 119 65 136 67 3 1 19 -21 35 -48z
m708 -31 c-3 -5 -13 -10 -21 -10 -8 0 -12 5 -9 10 3 6 13 10 21 10 8 0 12 -4
9 -10z m364 -110 c0 -10 -6 -6 -19 10 -13 18 -15 27 -7 32 12 7 25 -14 26 -42z
m-389 27 c0 -16 -91 -40 -103 -28 -12 12 14 29 53 34 19 2 38 5 43 5 4 1 7 -4
7 -11z m-140 -26 c0 -15 -24 -29 -64 -36 -52 -10 -45 14 10 31 50 15 54 16 54
5z m504 -67 c0 -23 -6 -41 -17 -49 -9 -7 -17 -16 -17 -20 0 -5 -7 -17 -16 -26
-9 -10 -16 -29 -16 -42 0 -24 -1 -24 -44 -11 -24 7 -46 9 -49 4 -3 -4 1 -10 7
-13 7 -2 9 -8 5 -13 -10 -11 -46 34 -47 57 0 9 9 27 20 40 13 16 19 19 20 10
0 -20 65 42 97 93 23 35 26 37 41 22 9 -9 16 -32 16 -52z m-354 42 c0 -2 -7
-7 -16 -10 -8 -3 -12 -2 -9 4 6 10 25 14 25 6z m-300 -15 c0 -12 -20 -25 -27
-18 -7 7 6 27 18 27 5 0 9 -4 9 -9z m-172 -30 c-2 -9 -11 -15 -20 -13 -9 1
-19 -5 -22 -14 -4 -10 -12 -14 -22 -10 -13 5 -15 1 -11 -16 5 -18 0 -26 -18
-35 -16 -7 -27 -8 -31 -1 -3 5 -12 7 -19 4 -7 -2 -16 2 -19 10 -3 8 0 16 7 18
40 12 47 17 47 31 0 8 -4 15 -10 15 -5 0 -10 5 -10 10 0 6 12 10 28 10 15 0
33 4 40 9 21 13 63 1 60 -18z m81 16 c15 -18 6 -25 -24 -19 -25 4 -31 13 -18
25 10 11 30 8 42 -6z m768 -9 c-3 -8 -6 -5 -6 6 -1 11 2 17 5 13 3 -3 4 -12 1
-19z m-362 -58 c3 -5 1 -10 -4 -10 -6 0 -11 5 -11 10 0 6 2 10 4 10 3 0 8 -4
11 -10z m125 -160 c-6 -11 -15 -20 -20 -20 -14 0 -12 27 3 33 23 10 28 7 17
-13z"/>
<path d="M2336 7082 c-9 -18 -27 -37 -39 -42 -21 -8 -21 -9 -1 -9 27 -1 67 42
62 66 -3 14 -7 11 -22 -15z"/>
<path d="M2430 7100 c-9 -6 -10 -10 -3 -10 6 0 15 5 18 10 8 12 4 12 -15 0z"/>
<path d="M2270 7089 c0 -5 5 -7 10 -4 6 3 10 8 10 11 0 2 -4 4 -10 4 -5 0 -10
-5 -10 -11z"/>
<path d="M2423 7063 c9 -2 23 -2 30 0 6 3 -1 5 -18 5 -16 0 -22 -2 -12 -5z"/>
<path d="M2230 7020 c-13 -8 -13 -10 2 -10 9 0 20 5 23 10 8 13 -5 13 -25 0z"/>
<path d="M6315 6980 c-3 -5 -2 -10 4 -10 5 0 13 5 16 10 3 6 2 10 -4 10 -5 0
-13 -4 -16 -10z"/>
<path d="M1992 6941 c4 -13 18 -16 19 -4 0 4 -5 9 -11 12 -7 2 -11 -2 -8 -8z"/>
<path d="M1901 6931 c-7 -5 -10 -14 -7 -20 4 -6 2 -11 -3 -11 -6 0 -11 -9 -11
-20 0 -11 4 -20 9 -20 10 0 25 30 22 44 -1 4 4 14 10 22 13 16 1 18 -20 5z"/>
<path d="M2100 6925 c0 -9 5 -15 11 -13 6 2 11 8 11 13 0 5 -5 11 -11 13 -6 2
-11 -4 -11 -13z"/>
<path d="M6345 6931 c3 -5 1 -12 -5 -16 -13 -8 -3 -25 14 -25 9 0 12 9 8 25
-2 14 -9 25 -14 25 -5 0 -7 -4 -3 -9z"/>
<path d="M6230 6895 c-18 -21 -3 -32 16 -13 10 9 12 18 6 22 -5 3 -15 -1 -22
-9z"/>
<path d="M4396 6843 c6 -36 18 -52 37 -53 5 0 1 10 -7 22 -9 12 -16 33 -16 45
0 13 -5 23 -10 23 -7 0 -8 -14 -4 -37z"/>
<path d="M6306 6873 c-11 -11 -6 -23 9 -23 8 0 15 4 15 9 0 13 -16 22 -24 14z"/>
<path d="M2020 6860 c0 -5 5 -10 10 -10 6 0 10 5 10 10 0 6 -4 10 -10 10 -5 0
-10 -4 -10 -10z"/>
<path d="M6346 6855 c-3 -9 0 -15 9 -15 8 0 15 7 15 15 0 8 -4 15 -9 15 -5 0
-11 -7 -15 -15z"/>
<path d="M4440 6835 c0 -26 22 -33 49 -16 21 13 5 41 -24 41 -20 0 -25 -5 -25
-25z"/>
<path d="M2598 6723 c6 -2 18 -2 25 0 6 3 1 5 -13 5 -14 0 -19 -2 -12 -5z"/>
<path d="M6220 6674 c0 -8 5 -12 10 -9 6 3 10 10 10 16 0 5 -4 9 -10 9 -5 0
-10 -7 -10 -16z"/>
<path d="M4021 6651 c-8 -5 -20 -7 -28 -4 -7 3 -13 -1 -13 -10 0 -22 25 -28
49 -11 33 23 26 46 -8 25z"/>
<path d="M2190 6570 c0 -5 5 -10 10 -10 6 0 10 5 10 10 0 6 -4 10 -10 10 -5 0
-10 -4 -10 -10z"/>
<path d="M2260 6554 c-54 -12 -102 -19 -142 -23 -5 -1 -8 -6 -8 -11 0 -13 101
-7 174 10 27 6 55 9 63 6 7 -3 13 1 13 8 0 11 -25 29 -33 25 -1 0 -31 -7 -67
-15z"/>
<path d="M4319 6539 c-21 -18 -21 -20 -4 -13 11 4 35 9 52 12 18 2 30 8 27 13
-10 16 -51 9 -75 -12z"/>
<path d="M4220 6530 c0 -5 5 -10 11 -10 5 0 7 5 4 10 -3 6 -8 10 -11 10 -2 0
-4 -4 -4 -10z"/>
<path d="M2232 6019 c2 -7 10 -15 17 -17 8 -3 12 1 9 9 -2 7 -10 15 -17 17 -8
3 -12 -1 -9 -9z"/>
<path d="M6346 5994 c-9 -24 -7 -31 10 -38 8 -3 12 -2 9 4 -3 6 -1 10 4 10 6
0 11 9 11 20 0 24 -25 27 -34 4z"/>
<path d="M6330 5890 c0 -5 5 -10 11 -10 5 0 7 5 4 10 -3 6 -8 10 -11 10 -2 0
-4 -4 -4 -10z"/>
<path d="M6135 5880 c3 -5 8 -10 11 -10 2 0 4 5 4 10 0 6 -5 10 -11 10 -5 0
-7 -4 -4 -10z"/>
<path d="M6162 5875 c2 -12 13 -22 28 -25 28 -6 36 -25 19 -46 -8 -10 -8 -14
0 -14 6 0 11 5 11 11 0 6 6 9 13 6 15 -6 41 29 32 43 -3 5 -11 7 -19 4 -16 -6
-68 13 -79 29 -5 8 -7 5 -5 -8z"/>
<path d="M2548 5873 c7 -3 16 -2 19 1 4 3 -2 6 -13 5 -11 0 -14 -3 -6 -6z"/>
<path d="M5995 5860 c3 -5 8 -10 11 -10 2 0 4 5 4 10 0 6 -5 10 -11 10 -5 0
-7 -4 -4 -10z"/>
<path d="M6286 5822 c-7 -20 1 -52 13 -52 8 0 8 56 -1 65 -3 4 -9 -2 -12 -13z"/>
<path d="M3450 5810 c0 -5 5 -10 10 -10 6 0 10 5 10 10 0 6 -4 10 -10 10 -5 0
-10 -4 -10 -10z"/>
<path d="M3776 5561 c-3 -5 1 -11 9 -15 15 -6 29 7 18 18 -9 9 -21 8 -27 -3z"/>
<path d="M6270 5431 c0 -5 7 -12 16 -15 24 -9 27 -7 10 9 -17 17 -26 19 -26 6z"/>
<path d="M6415 5410 c3 -5 8 -10 11 -10 2 0 4 5 4 10 0 6 -5 10 -11 10 -5 0
-7 -4 -4 -10z"/>
<path d="M6285 5330 c3 -5 10 -10 16 -10 5 0 9 5 9 10 0 6 -7 10 -16 10 -8 0
-12 -4 -9 -10z"/>
<path d="M6308 5235 c-22 -29 -23 -42 -3 -25 13 11 18 11 28 0 9 -10 9 -13 0
-17 -21 -8 -15 -41 10 -54 12 -7 26 -18 30 -25 16 -27 69 -8 75 27 1 9 -5 22
-13 29 -13 11 -15 8 -15 -17 0 -16 -3 -33 -7 -36 -11 -11 -33 30 -26 49 5 13
3 16 -10 11 -12 -5 -17 -1 -17 13 0 11 -4 20 -10 20 -5 0 -10 11 -10 25 0 31
-10 31 -32 0z"/>
<path d="M2076 5231 c-4 -7 -5 -15 -2 -18 9 -9 19 4 14 18 -4 11 -6 11 -12 0z"/>
<path d="M6250 5170 c0 -5 4 -10 10 -10 5 0 9 -11 8 -25 -1 -14 -6 -25 -11
-25 -4 0 -14 -6 -21 -12 -11 -10 -9 -16 10 -31 27 -21 32 -47 8 -47 -11 0 -14
-6 -9 -21 5 -14 3 -19 -3 -15 -6 3 -17 4 -24 1 -17 -7 -14 -80 3 -102 16 -19
27 -16 55 14 18 19 23 34 19 50 -4 16 0 25 10 29 8 3 20 24 25 45 11 39 24 50
33 27 2 -7 7 -10 11 -7 4 4 -6 21 -23 37 -16 17 -33 41 -37 54 -11 35 -64 67
-64 38z"/>
<path d="M6470 5160 c0 -5 7 -10 16 -10 8 0 12 5 9 10 -3 6 -10 10 -16 10 -5
0 -9 -4 -9 -10z"/>
<path d="M6536 5141 c-4 -7 -5 -15 -2 -18 9 -9 19 4 14 18 -4 11 -6 11 -12 0z"/>
<path d="M5660 5105 c0 -17 22 -29 41 -23 8 3 6 9 -5 21 -22 21 -36 22 -36 2z"/>
<path d="M2010 5080 c-9 -6 -10 -10 -3 -10 6 0 15 5 18 10 8 12 4 12 -15 0z"/>
<path d="M1994 4987 c-9 -24 6 -44 18 -22 7 11 6 21 -1 28 -7 7 -12 6 -17 -6z"/>
<path d="M2056 4923 c3 -38 8 -70 10 -72 7 -8 -17 -41 -31 -41 -10 0 -14 -11
-13 -37 1 -21 -1 -45 -3 -53 -2 -8 6 -19 19 -25 27 -12 28 -26 2 -50 -18 -17
-19 -41 0 -30 5 3 5 -9 0 -26 -6 -19 -6 -38 -1 -48 6 -10 4 -26 -6 -45 -15
-28 -14 -31 8 -50 20 -17 22 -25 14 -43 -5 -13 -15 -23 -22 -23 -7 0 -13 -4
-13 -8 0 -12 34 -42 48 -42 7 0 13 -4 13 -10 1 -5 2 -14 3 -20 0 -5 7 -15 13
-21 10 -10 16 -9 31 4 10 9 24 17 30 17 7 0 12 9 12 20 0 15 7 20 27 20 21 0
24 3 15 12 -7 7 -12 22 -12 34 0 26 -16 41 -23 22 -2 -7 -8 -10 -12 -6 -5 5
-3 19 3 33 10 22 15 23 37 15 19 -7 24 -7 19 1 -3 6 0 16 7 21 14 9 6 17 -18
21 -18 2 -44 48 -38 67 4 14 2 20 -8 20 -22 0 -40 -27 -39 -60 0 -17 -4 -30
-9 -30 -10 0 -10 0 -14 50 -2 25 2 38 16 48 25 17 24 28 -3 36 -22 5 -21 7 12
23 30 15 35 23 35 53 0 28 -4 34 -17 32 -19 -3 -22 6 -12 32 5 12 10 14 20 6
9 -8 19 -8 36 1 20 11 21 10 11 -3 -7 -8 -10 -18 -6 -21 10 -10 34 14 26 26
-4 6 -8 33 -9 60 -1 35 -8 55 -24 73 -28 29 -40 30 -47 4 -5 -17 -7 -17 -20
-5 -8 9 -12 23 -8 34 5 16 2 18 -15 14 -16 -4 -23 0 -27 16 -12 45 -22 18 -17
-46z m75 -106 c-8 -8 -11 -7 -11 4 0 20 13 34 18 19 3 -7 -1 -17 -7 -23z m-64
-89 c-3 -8 -6 -5 -6 6 -1 11 2 17 5 13 3 -3 4 -12 1 -19z"/>
<path d="M5855 4930 c-9 -15 5 -90 17 -90 6 0 7 -7 4 -16 -9 -23 2 -54 20 -54
8 0 14 -7 14 -15 0 -8 7 -15 15 -15 8 0 15 5 15 10 0 6 11 15 25 20 20 8 25
16 25 46 0 27 -5 37 -20 41 -11 3 -20 13 -20 23 0 13 -6 17 -19 13 -12 -3 -25
5 -39 21 -22 29 -28 31 -37 16z"/>
<path d="M6059 4873 c-22 -5 -31 -40 -12 -47 7 -3 13 -11 12 -18 -3 -27 1 -38
16 -38 11 0 13 10 10 45 -3 26 -1 45 5 45 6 0 10 -5 10 -12 0 -6 3 -8 6 -5 7
7 -14 38 -25 36 -3 -1 -13 -3 -22 -6z"/>
<path d="M3610 4770 c0 -5 4 -10 9 -10 6 0 13 5 16 10 3 6 -1 10 -9 10 -9 0
-16 -4 -16 -10z"/>
<path d="M3428 4693 c7 -3 16 -2 19 1 4 3 -2 6 -13 5 -11 0 -14 -3 -6 -6z"/>
<path d="M2223 4652 c-3 -9 -8 -20 -10 -24 -2 -4 6 -4 18 1 28 10 35 27 14 35
-10 3 -18 -1 -22 -12z"/>
<path d="M1980 4640 c0 -5 5 -10 11 -10 5 0 7 5 4 10 -3 6 -8 10 -11 10 -2 0
-4 -4 -4 -10z"/>
<path d="M2220 4600 c0 -5 5 -10 10 -10 6 0 10 5 10 10 0 6 -4 10 -10 10 -5 0
-10 -4 -10 -10z"/>
<path d="M5202 4588 c3 -7 13 -15 24 -17 16 -3 17 -1 5 13 -16 19 -34 21 -29
4z"/>
<path d="M5260 4590 c0 -5 7 -10 15 -10 8 0 15 5 15 10 0 6 -7 10 -15 10 -8 0
-15 -4 -15 -10z"/>
<path d="M1974 4569 c-3 -6 0 -18 9 -26 13 -13 15 -12 15 11 0 27 -12 34 -24
15z"/>
<path d="M5265 4530 c3 -5 10 -10 16 -10 5 0 9 5 9 10 0 6 -7 10 -16 10 -8 0
-12 -4 -9 -10z"/>
<path d="M3110 4510 c0 -5 4 -10 9 -10 6 0 13 5 16 10 3 6 -1 10 -9 10 -9 0
-16 -4 -16 -10z"/>
<path d="M1990 4482 c0 -15 -7 -38 -16 -50 -18 -26 -13 -38 11 -29 8 4 15 18
15 34 0 15 3 38 6 51 4 13 2 22 -5 22 -6 0 -11 -12 -11 -28z"/>
<path d="M2277 4484 c-4 -4 -7 -14 -7 -23 0 -11 3 -12 11 -4 6 6 10 16 7 23
-2 6 -7 8 -11 4z"/>
<path d="M2313 4403 c-13 -2 -23 -9 -23 -15 0 -5 7 -7 16 -4 9 3 22 6 30 6 8
0 14 5 14 10 0 6 -3 9 -7 9 -5 -1 -18 -4 -30 -6z"/>
<path d="M5370 4392 c0 -5 7 -13 16 -16 10 -4 14 -1 12 6 -5 15 -28 23 -28 10z"/>
<path d="M2407 4350 c-3 -11 -3 -20 -1 -20 2 0 8 9 14 20 6 11 7 20 2 20 -6 0
-12 -9 -15 -20z"/>
<path d="M3010 4360 c0 -5 5 -10 10 -10 6 0 10 5 10 10 0 6 -4 10 -10 10 -5 0
-10 -4 -10 -10z"/>
<path d="M6120 4355 c7 -9 15 -13 17 -11 7 7 -7 26 -19 26 -6 0 -6 -6 2 -15z"/>
<path d="M2280 4350 c0 -5 5 -10 10 -10 6 0 10 5 10 10 0 6 -4 10 -10 10 -5 0
-10 -4 -10 -10z"/>
<path d="M5400 4350 c-13 -8 -12 -10 3 -10 9 0 17 5 17 10 0 12 -1 12 -20 0z"/>
<path d="M5880 4335 c0 -8 5 -15 10 -15 6 0 10 7 10 15 0 8 -4 15 -10 15 -5 0
-10 -7 -10 -15z"/>
<path d="M2352 4331 c-8 -5 -14 -25 -15 -45 -1 -40 -14 -49 -19 -14 -2 13 -11
24 -20 26 -20 4 -34 -52 -24 -93 5 -20 3 -25 -13 -25 -27 0 -32 12 -21 48 5
19 5 34 -1 37 -5 4 -9 2 -9 -3 0 -6 -13 -15 -29 -20 -23 -8 -32 -7 -41 3 -9
10 -18 11 -41 3 -16 -5 -29 -14 -29 -18 0 -11 30 -21 41 -14 5 3 9 -1 9 -9 0
-8 -7 -17 -15 -21 -9 -3 -15 -18 -15 -37 0 -31 0 -32 20 -14 11 10 20 24 20
32 0 7 7 13 16 13 12 0 15 -6 11 -23 -4 -12 -3 -27 1 -34 10 -16 61 -4 73 18
14 28 29 23 29 -8 0 -32 -9 -48 -30 -56 -8 -3 0 -6 18 -6 19 -1 40 7 52 19 11
11 23 20 28 19 4 0 9 8 12 18 4 13 15 18 40 18 32 0 35 3 38 33 2 23 -1 32
-11 32 -13 0 -31 -33 -28 -52 1 -5 -3 -8 -9 -8 -19 0 -15 60 6 76 20 16 17 28
-8 39 -18 8 -22 17 -20 43 2 35 3 35 -16 23z m-112 -161 c0 -5 -4 -10 -10 -10
-5 0 -10 5 -10 10 0 6 5 10 10 10 6 0 10 -4 10 -10z"/>
<path d="M1985 4310 c-3 -5 3 -10 14 -10 12 0 21 5 21 10 0 6 -6 10 -14 10 -8
0 -18 -4 -21 -10z"/>
<path d="M2196 4291 c-4 -7 -5 -15 -2 -18 9 -9 19 4 14 18 -4 11 -6 11 -12 0z"/>
<path d="M2442 4239 c2 -6 8 -10 13 -10 5 0 11 4 13 10 2 6 -4 11 -13 11 -9 0
-15 -5 -13 -11z"/>
<path d="M3135 4227 c-48 -28 -49 -29 -32 -38 11 -7 25 -1 49 21 32 30 23 39
-17 17z"/>
<path d="M5983 4186 c-13 -13 -23 -29 -23 -35 0 -6 -9 -11 -20 -11 -11 0 -20
-4 -20 -10 0 -5 -4 -10 -10 -10 -5 0 -10 10 -10 23 0 33 -18 49 -42 36 -13 -7
-17 -17 -13 -29 3 -11 1 -28 -5 -40 -11 -21 -1 -27 17 -9 6 6 20 8 32 4 16 -5
21 -15 21 -40 0 -21 6 -35 16 -39 22 -8 34 1 34 27 0 33 24 93 45 117 27 30 6
45 -22 16z"/>
<path d="M3010 4189 c0 -5 5 -7 10 -4 6 3 10 8 10 11 0 2 -4 4 -10 4 -5 0 -10
-5 -10 -11z"/>
<path d="M2000 4174 c0 -9 5 -14 12 -12 18 6 21 28 4 28 -9 0 -16 -7 -16 -16z"/>
<path d="M2048 4160 c-18 -21 -13 -26 11 -11 7 5 12 14 10 20 -3 7 -11 3 -21
-9z"/>
<path d="M5330 4170 c-12 -8 -11 -10 7 -10 12 0 23 -6 26 -12 2 -7 8 -10 12
-6 4 4 0 14 -8 23 -18 18 -18 18 -37 5z"/>
<path d="M3092 4139 c-7 -12 -11 -23 -8 -26 11 -11 67 10 77 29 10 19 10 19
-15 3 -24 -16 -26 -16 -26 -1 0 22 -13 20 -28 -5z"/>
<path d="M2002 4091 c-17 -39 -77 -101 -96 -101 -9 0 -16 -4 -16 -10 0 -5 -4
-10 -10 -10 -5 0 -10 7 -10 15 0 12 -7 14 -27 9 -37 -9 -38 -11 -23 -29 17
-20 -2 -20 -38 1 -25 15 -25 14 5 -14 58 -56 161 -53 245 7 30 21 36 30 31 51
-3 14 -9 30 -13 35 -5 6 -10 23 -12 39 -4 39 -20 42 -36 7z m-142 -121 c0 -5
-5 -10 -11 -10 -5 0 -7 5 -4 10 3 6 8 10 11 10 2 0 4 -4 4 -10z"/>
<path d="M2375 4110 c-3 -5 -1 -10 4 -10 6 0 11 5 11 10 0 6 -2 10 -4 10 -3 0
-8 -4 -11 -10z"/>
<path d="M3043 4090 c-33 -30 -28 -40 14 -34 38 5 58 14 30 14 -8 0 -17 9 -19
21 l-3 20 -22 -21z"/>
<path d="M2093 4069 c3 -45 36 -92 57 -79 12 7 9 13 -13 30 -15 12 -27 29 -27
38 0 9 -5 24 -10 32 -7 11 -9 5 -7 -21z"/>
<path d="M5190 4090 c-13 -8 -12 -10 3 -10 9 0 17 5 17 10 0 12 -1 12 -20 0z"/>
<path d="M5380 4090 c0 -5 7 -10 16 -10 8 0 12 5 9 10 -3 6 -10 10 -16 10 -5
0 -9 -4 -9 -10z"/>
<path d="M3115 4080 c-3 -5 -2 -10 4 -10 5 0 13 5 16 10 3 6 2 10 -4 10 -5 0
-13 -4 -16 -10z"/>
<path d="M6345 4081 c-6 -11 9 -23 19 -14 9 9 7 23 -3 23 -6 0 -12 -4 -16 -9z"/>
<path d="M5255 4068 c-11 -6 -22 -12 -24 -14 -2 -2 9 -14 23 -27 14 -13 26
-31 26 -38 1 -8 14 -29 29 -47 26 -30 31 -32 50 -20 27 17 27 36 -1 40 -15 2
-23 10 -24 23 -2 48 -5 55 -23 55 -11 0 -18 6 -17 16 1 22 -14 26 -39 12z"/>
<path d="M2316 4044 c-9 -33 30 -102 48 -84 8 8 7 15 -6 24 -25 18 -31 63 -10
76 15 8 14 9 -4 10 -15 0 -24 -8 -28 -26z"/>
<path d="M6365 4040 c3 -5 8 -10 11 -10 2 0 4 5 4 10 0 6 -5 10 -11 10 -5 0
-7 -4 -4 -10z"/>
<path d="M3064 4031 c-12 -12 -1 -21 19 -16 35 11 42 23 12 22 -15 -1 -29 -4
-31 -6z"/>
<path d="M5379 4014 c4 -15 12 -29 19 -32 19 -6 14 23 -7 42 -19 18 -20 17
-12 -10z"/>
<path d="M2447 4024 c-4 -4 -4 -10 -1 -15 6 -10 34 0 34 12 0 10 -24 12 -33 3z"/>
<path d="M2170 4005 c0 -8 7 -15 15 -15 8 0 15 7 15 15 0 8 -7 15 -15 15 -8 0
-15 -7 -15 -15z"/>
<path d="M2370 4010 c0 -5 5 -10 10 -10 6 0 10 5 10 10 0 6 -4 10 -10 10 -5 0
-10 -4 -10 -10z"/>
<path d="M3112 3995 c-7 -8 -22 -15 -33 -15 -15 0 -19 -5 -15 -16 3 -9 6 -20
6 -25 0 -12 67 -12 75 1 4 6 -6 10 -22 10 l-28 1 28 22 c15 13 27 26 27 30 0
12 -24 7 -38 -8z"/>
<path d="M5237 3984 c3 -7 9 -14 14 -14 14 0 10 17 -5 23 -10 4 -13 1 -9 -9z"/>
<path d="M2241 3976 c-11 -13 -11 -20 -3 -28 8 -8 13 -7 18 5 10 27 0 41 -15
23z"/>
<path d="M5175 3980 c3 -5 10 -10 16 -10 5 0 9 5 9 10 0 6 -7 10 -16 10 -8 0
-12 -4 -9 -10z"/>
<path d="M2185 3960 c-3 -5 1 -10 10 -10 9 0 13 5 10 10 -3 6 -8 10 -10 10 -2
0 -7 -4 -10 -10z"/>
<path d="M2385 3949 c-4 -6 -5 -13 -2 -16 7 -7 27 6 27 18 0 12 -17 12 -25 -2z"/>
<path d="M3258 3949 c-27 -15 -22 -32 6 -25 33 8 86 -4 86 -19 0 -7 8 -12 18
-10 9 2 20 4 24 4 3 1 4 10 1 21 -6 23 -41 35 -78 28 -14 -3 -25 -1 -25 3 0
12 -11 11 -32 -2z"/>
<path d="M5245 3930 c3 -5 10 -10 16 -10 5 0 9 5 9 10 0 6 -7 10 -16 10 -8 0
-12 -4 -9 -10z"/>
<path d="M5942 3911 c4 -13 18 -16 19 -4 0 4 -5 9 -11 12 -7 2 -11 -2 -8 -8z"/>
<path d="M2120 3907 c0 -16 32 -77 40 -77 13 0 13 27 0 35 -6 4 -9 14 -8 23 2
9 -5 18 -14 20 -10 2 -18 1 -18 -1z"/>
<path d="M3204 3895 c-18 -15 -18 -15 5 -13 14 2 26 9 29 16 5 17 -10 15 -34
-3z"/>
<path d="M2215 3890 c3 -5 8 -10 11 -10 2 0 4 5 4 10 0 6 -5 10 -11 10 -5 0
-7 -4 -4 -10z"/>
<path d="M2325 3847 c4 -28 0 -34 -26 -46 -26 -11 -33 -11 -40 0 -4 7 -12 10
-16 5 -11 -11 26 -36 54 -36 30 0 30 -16 0 -24 -31 -7 -79 -45 -72 -56 7 -11
34 -2 58 18 9 8 17 11 17 7 0 -5 5 -4 11 2 8 8 20 8 35 3 15 -6 24 -6 24 0 0
5 7 7 15 4 17 -7 50 22 36 30 -5 4 -11 0 -14 -6 -8 -24 -21 2 -21 45 -1 34 -4
41 -19 39 -11 -2 -17 4 -17 16 0 11 -7 22 -14 25 -12 5 -14 -1 -11 -26z"/>
<path d="M5916 3871 c-4 -7 -5 -15 -2 -18 9 -9 19 4 14 18 -4 11 -6 11 -12 0z"/>
<path d="M5841 3861 c-7 -5 -9 -11 -4 -14 13 -8 53 3 53 14 0 11 -31 11 -49 0z"/>
<path d="M2486 3844 c-5 -13 -9 -14 -21 -4 -22 18 -31 4 -15 -25 15 -28 27
-31 53 -10 13 9 17 20 12 34 -8 25 -21 27 -29 5z"/>
<path d="M3075 3840 c-3 -5 -1 -10 4 -10 6 0 11 5 11 10 0 6 -2 10 -4 10 -3 0
-8 -4 -11 -10z"/>
<path d="M5256 3842 c-3 -6 -1 -14 5 -17 15 -10 25 3 12 16 -7 7 -13 7 -17 1z"/>
<path d="M2546 3821 c-4 -7 -5 -15 -2 -18 9 -9 19 4 14 18 -4 11 -6 11 -12 0z"/>
<path d="M5025 3791 c-10 -17 12 -21 25 -6 10 12 10 15 -3 15 -9 0 -18 -4 -22
-9z"/>
<path d="M3422 3779 c2 -6 8 -10 13 -10 5 0 11 4 13 10 2 6 -4 11 -13 11 -9 0
-15 -5 -13 -11z"/>
<path d="M3045 3770 c4 -6 11 -8 16 -5 14 9 11 15 -7 15 -8 0 -12 -5 -9 -10z"/>
<path d="M3042 3710 c-12 -13 -26 -19 -32 -15 -9 5 -10 1 -6 -13 4 -11 2 -23
-4 -27 -5 -3 -10 -13 -10 -22 0 -12 6 -14 28 -9 15 4 32 13 37 20 6 7 20 16
33 20 22 7 31 36 11 36 -7 0 -17 7 -24 16 -11 15 -14 15 -33 -6z"/>
<path d="M4855 3720 c-3 -5 6 -12 20 -16 29 -7 41 -1 30 15 -8 14 -42 14 -50
1z"/>
<path d="M4947 3723 c-8 -7 25 -33 35 -27 4 3 5 11 1 19 -5 16 -25 20 -36 8z"/>
<path d="M2917 3694 c-8 -8 1 -24 14 -24 5 0 9 7 9 15 0 15 -12 20 -23 9z"/>
<path d="M3725 3690 c-3 -5 -1 -10 4 -10 6 0 11 5 11 10 0 6 -2 10 -4 10 -3 0
-8 -4 -11 -10z"/>
<path d="M5130 3690 c0 -5 5 -10 11 -10 5 0 7 5 4 10 -3 6 -8 10 -11 10 -2 0
-4 -4 -4 -10z"/>
<path d="M4750 3680 c0 -5 5 -10 10 -10 6 0 10 5 10 10 0 6 -4 10 -10 10 -5 0
-10 -4 -10 -10z"/>
<path d="M4949 3680 c-21 -14 -2 -24 23 -13 17 7 19 11 6 15 -8 4 -21 2 -29
-2z"/>
<path d="M2563 3665 c-3 -9 -3 -18 0 -21 9 -9 27 6 27 22 0 19 -19 18 -27 -1z"/>
<path d="M4835 3671 c-3 -5 8 -9 25 -9 16 1 30 5 30 10 0 11 -47 10 -55 -1z"/>
<path d="M4690 3660 c0 -5 4 -10 9 -10 6 0 13 5 16 10 3 6 -1 10 -9 10 -9 0
-16 -4 -16 -10z"/>
<path d="M2718 3643 c7 -3 16 -2 19 1 4 3 -2 6 -13 5 -11 0 -14 -3 -6 -6z"/>
<path d="M4811 3631 c-22 -12 -30 -21 -22 -25 13 -8 61 19 61 34 0 12 2 13
-39 -9z"/>
<path d="M2262 3624 c4 -21 22 -23 26 -1 2 10 -3 17 -13 17 -10 0 -15 -6 -13
-16z"/>
<path d="M3895 3631 c-3 -5 -1 -12 5 -16 12 -7 30 2 30 16 0 12 -27 12 -35 0z"/>
<path d="M5070 3612 c0 -12 7 -25 15 -29 24 -9 25 0 5 27 l-20 25 0 -23z"/>
<path d="M3285 3599 c-8 -23 8 -48 19 -30 4 6 2 11 -5 11 -10 0 -10 3 -1 12
14 14 16 28 3 28 -5 0 -13 -9 -16 -21z"/>
<path d="M3113 3590 c-3 -11 -9 -20 -14 -20 -5 0 -9 -7 -9 -15 0 -21 19 -19
27 3 3 9 13 25 21 35 14 15 13 17 -2 17 -10 0 -20 -9 -23 -20z"/>
<path d="M3058 3589 c-10 -5 -18 -16 -18 -24 0 -7 -5 -15 -12 -17 -17 -6 0
-28 23 -28 10 0 19 3 20 8 0 4 2 22 5 40 2 17 3 32 1 32 -1 0 -10 -5 -19 -11z"/>
<path d="M5590 3580 c0 -11 5 -20 10 -20 6 0 10 9 10 20 0 11 -4 20 -10 20 -5
0 -10 -9 -10 -20z"/>
<path d="M2677 3563 c-12 -12 -8 -20 18 -31 28 -13 30 -10 15 19 -11 20 -22
24 -33 12z"/>
<path d="M4992 3549 c2 -6 8 -10 13 -10 5 0 11 4 13 10 2 6 -4 11 -13 11 -9 0
-15 -5 -13 -11z"/>
<path d="M3110 3530 c-12 -23 -11 -24 24 -10 31 11 34 30 6 30 -10 0 -24 -9
-30 -20z"/>
<path d="M2980 3520 l-25 -8 28 -1 c15 -1 27 4 27 9 0 6 -1 10 -2 9 -2 -1 -14
-5 -28 -9z"/>
<path d="M3065 3501 c-3 -5 -1 -12 5 -16 5 -3 10 1 10 9 0 18 -6 21 -15 7z"/>
<path d="M3060 3450 c-19 -12 -5 -25 28 -25 17 0 28 -6 30 -17 3 -14 -3 -18
-28 -18 -28 0 -31 -2 -20 -15 9 -10 9 -15 1 -15 -6 0 -11 -4 -11 -10 0 -5 7
-10 15 -10 8 0 15 -8 16 -17 0 -14 2 -13 9 4 5 12 18 26 28 32 26 14 47 71 31
85 -8 8 -13 7 -16 -1 -6 -18 -30 -16 -37 2 -6 17 -24 19 -46 5z"/>
<path d="M2915 3419 c-10 -15 1 -23 20 -15 9 3 13 10 10 16 -8 13 -22 13 -30
-1z"/>
<path d="M3470 3390 c0 -5 5 -10 11 -10 5 0 7 5 4 10 -3 6 -8 10 -11 10 -2 0
-4 -4 -4 -10z"/>
<path d="M3270 3345 c0 -9 6 -12 15 -9 8 4 15 10 15 15 0 5 -7 9 -15 9 -8 0
-15 -7 -15 -15z"/>
<path d="M3355 3300 c-3 -5 1 -10 10 -10 9 0 13 5 10 10 -3 6 -8 10 -10 10 -2
0 -7 -4 -10 -10z"/>
<path d="M4952 3299 c2 -6 8 -10 13 -10 5 0 11 4 13 10 2 6 -4 11 -13 11 -9 0
-15 -5 -13 -11z"/>
<path d="M3245 3291 c-6 -11 9 -23 19 -14 9 9 7 23 -3 23 -6 0 -12 -4 -16 -9z"/>
<path d="M4710 3290 c0 -5 10 -20 22 -32 27 -27 39 -6 12 23 -19 21 -34 25
-34 9z"/>
<path d="M4510 3280 c0 -5 5 -10 10 -10 6 0 10 5 10 10 0 6 -4 10 -10 10 -5 0
-10 -4 -10 -10z"/>
<path d="M4832 3273 c4 -21 33 -25 33 -3 0 8 -8 16 -18 18 -14 3 -18 -1 -15
-15z"/>
<path d="M3270 3250 c0 -5 5 -10 10 -10 6 0 10 5 10 10 0 6 -4 10 -10 10 -5 0
-10 -4 -10 -10z"/>
<path d="M4827 3234 c-11 -11 3 -24 25 -24 17 0 18 2 8 15 -13 16 -23 19 -33
9z"/>
<path d="M5060 3213 c1 -10 26 -43 33 -43 2 0 7 7 10 14 4 11 1 13 -11 9 -15
-6 -15 -5 -3 10 12 15 11 17 -8 17 -11 0 -21 -3 -21 -7z"/>
<path d="M3575 3200 c-3 -5 -1 -10 4 -10 6 0 11 5 11 10 0 6 -2 10 -4 10 -3 0
-8 -4 -11 -10z"/>
<path d="M3707 3193 c-4 -3 -7 -11 -7 -17 0 -6 5 -5 12 2 6 6 9 14 7 17 -3 3
-9 2 -12 -2z"/>
<path d="M3705 3119 c-4 -6 -5 -13 -2 -16 7 -7 27 6 27 18 0 12 -17 12 -25 -2z"/>
<path d="M4615 3081 c-9 -15 8 -35 24 -30 8 3 7 10 -2 23 -10 14 -16 16 -22 7z"/>
<path d="M4517 3023 c-3 -5 6 -16 19 -26 20 -15 24 -16 24 -3 0 17 -36 40 -43
29z"/>
<path d="M4495 2990 c3 -5 8 -10 11 -10 2 0 4 5 4 10 0 6 -5 10 -11 10 -5 0
-7 -4 -4 -10z"/>
<path d="M3915 2970 c-3 -6 1 -7 9 -4 18 7 21 14 7 14 -6 0 -13 -4 -16 -10z"/>
<path d="M3995 2920 c-3 -6 1 -13 10 -16 19 -8 30 0 20 15 -8 14 -22 14 -30 1z"/>
<path d="M3710 2329 c0 -5 5 -7 10 -4 6 3 10 8 10 11 0 2 -4 4 -10 4 -5 0 -10
-5 -10 -11z"/>
<path d="M3760 2322 c0 -15 28 -34 40 -27 5 3 10 -1 10 -9 0 -19 19 -31 30
-20 12 12 1 27 -35 44 -16 8 -33 16 -37 18 -5 2 -8 -1 -8 -6z"/>
<path d="M2840 2280 c0 -6 7 -10 15 -10 8 0 15 2 15 4 0 2 -7 6 -15 10 -8 3
-15 1 -15 -4z"/>
<path d="M3520 2245 c0 -8 -7 -15 -15 -15 -8 0 -15 -4 -15 -10 0 -15 17 -12
45 6 25 17 25 34 -1 34 -8 0 -14 -7 -14 -15z"/>
<path d="M3200 2241 c0 -6 9 -15 20 -21 11 -6 20 -8 20 -4 0 4 9 -1 19 -10 19
-17 20 -17 30 2 10 18 7 21 -22 27 -17 4 -40 9 -49 11 -10 3 -18 1 -18 -5z"/>
<path d="M3452 2239 c2 -6 8 -10 13 -10 5 0 11 4 13 10 2 6 -4 11 -13 11 -9 0
-15 -5 -13 -11z"/>
<path d="M2766 2224 c-10 -26 -7 -36 9 -31 8 4 17 2 21 -4 4 -6 13 -3 24 8 16
17 16 19 -4 30 -29 17 -43 16 -50 -3z"/>
<path d="M3330 2236 c0 -2 7 -7 16 -10 8 -3 12 -2 9 4 -6 10 -25 14 -25 6z"/>
<path d="M3710 2225 c0 -8 2 -15 4 -15 2 0 11 -3 20 -6 23 -9 20 13 -4 26 -16
9 -20 8 -20 -5z"/>
<path d="M2920 2220 c0 -5 7 -10 16 -10 8 0 12 5 9 10 -3 6 -10 10 -16 10 -5
0 -9 -4 -9 -10z"/>
<path d="M3067 2218 c-8 -23 11 -58 32 -58 11 0 25 -8 30 -19 12 -21 64 -48
113 -58 l33 -6 -19 21 c-11 12 -24 22 -31 22 -22 0 -93 39 -99 55 -9 24 -8 25
17 26 20 1 20 2 2 6 -11 3 -24 9 -29 14 -14 13 -43 11 -49 -3z"/>
<path d="M2855 2200 c3 -5 8 -10 11 -10 2 0 4 5 4 10 0 6 -5 10 -11 10 -5 0
-7 -4 -4 -10z"/>
<path d="M5590 2200 c0 -5 5 -10 10 -10 6 0 10 5 10 10 0 6 -4 10 -10 10 -5 0
-10 -4 -10 -10z"/>
<path d="M3183 2193 c-18 -6 -16 -23 1 -23 17 0 30 16 19 23 -5 2 -14 2 -20 0z"/>
<path d="M2680 2173 c1 -13 27 -43 32 -37 10 10 -4 44 -18 44 -8 0 -14 -3 -14
-7z"/>
<path d="M2820 2155 c0 -9 5 -15 11 -13 6 2 11 8 11 13 0 5 -5 11 -11 13 -6 2
-11 -4 -11 -13z"/>
<path d="M4617 2164 c-11 -12 3 -24 29 -24 16 0 24 5 22 13 -5 13 -40 22 -51
11z"/>
<path d="M4750 2160 c0 -5 4 -10 9 -10 6 0 13 5 16 10 3 6 -1 10 -9 10 -9 0
-16 -4 -16 -10z"/>
<path d="M4770 2134 c0 -9 5 -14 12 -12 18 6 21 28 4 28 -9 0 -16 -7 -16 -16z"/>
<path d="M4675 2130 c-4 -6 6 -10 24 -10 16 0 33 5 36 10 4 6 -6 10 -24 10
-16 0 -33 -4 -36 -10z"/>
<path d="M3465 2119 c-4 -6 -5 -13 -2 -16 8 -7 47 7 47 18 0 13 -37 11 -45 -2z"/>
<path d="M2776 2103 c-11 -11 -6 -23 9 -23 8 0 15 4 15 9 0 13 -16 22 -24 14z"/>
<path d="M2840 2101 c0 -5 7 -11 15 -15 9 -3 15 0 15 9 0 8 -7 15 -15 15 -8 0
-15 -4 -15 -9z"/>
<path d="M3085 2090 c3 -5 8 -10 11 -10 2 0 4 5 4 10 0 6 -5 10 -11 10 -5 0
-7 -4 -4 -10z"/>
<path d="M5583 2083 c-13 -8 -23 -22 -23 -29 0 -29 30 -10 43 29 8 20 8 20
-20 0z"/>
<path d="M4640 2050 c0 -5 4 -10 9 -10 6 0 13 5 16 10 3 6 -1 10 -9 10 -9 0
-16 -4 -16 -10z"/>
<path d="M5280 2035 c-17 -20 9 -21 36 0 19 14 19 14 -2 15 -12 0 -27 -7 -34
-15z"/>
<path d="M5435 2030 c-10 -11 -15 -20 -11 -20 14 0 46 21 46 30 0 16 -16 11
-35 -10z"/>
<path d="M3490 2031 c0 -17 28 -43 34 -32 3 4 -3 16 -14 26 -13 12 -20 14 -20
6z"/>
<path d="M4742 2016 c-23 -11 -25 -27 -4 -34 7 -2 12 2 12 9 0 6 8 18 18 25
20 16 6 16 -26 0z"/>
<path d="M5690 2011 c-6 -12 -16 -18 -22 -15 -7 4 -8 3 -4 -4 11 -19 34 -14
41 9 9 28 -1 35 -15 10z"/>
<path d="M3710 1930 c0 -5 5 -10 11 -10 5 0 7 5 4 10 -3 6 -8 10 -11 10 -2 0
-4 -4 -4 -10z"/>
<path d="M3620 1915 c0 -8 7 -15 15 -15 8 0 15 4 15 9 0 5 -7 11 -15 15 -9 3
-15 0 -15 -9z"/>
<path d="M5218 1923 c-10 -2 -18 -8 -18 -11 0 -12 19 -37 23 -32 6 6 19 50 15
49 -2 -1 -11 -3 -20 -6z"/>
<path d="M5500 1920 c-9 -6 -10 -10 -3 -10 6 0 15 5 18 10 8 12 4 12 -15 0z"/>
<path d="M3740 1859 c0 -5 5 -7 10 -4 6 3 10 8 10 11 0 2 -4 4 -10 4 -5 0 -10
-5 -10 -11z"/>
<path d="M3880 1845 c0 -8 5 -15 10 -15 6 0 10 7 10 15 0 8 -4 15 -10 15 -5 0
-10 -7 -10 -15z"/>
<path d="M5400 1829 c0 -5 5 -7 10 -4 6 3 10 8 10 11 0 2 -4 4 -10 4 -5 0 -10
-5 -10 -11z"/>
<path d="M3715 1820 c3 -5 11 -10 16 -10 6 0 7 5 4 10 -3 6 -11 10 -16 10 -6
0 -7 -4 -4 -10z"/>
<path d="M3450 1800 c0 -12 40 -33 48 -25 4 4 -2 13 -12 21 -23 16 -36 18 -36
4z"/>
<path d="M4615 1789 c-4 -6 -5 -13 -2 -16 7 -7 27 6 27 18 0 12 -17 12 -25 -2z"/>
<path d="M3525 1770 c3 -5 8 -10 11 -10 2 0 4 5 4 10 0 6 -5 10 -11 10 -5 0
-7 -4 -4 -10z"/>
<path d="M3854 1756 c22 -18 46 -21 46 -6 0 6 -6 10 -14 10 -8 0 -23 3 -33 6
-16 5 -16 4 1 -10z"/>
<path d="M3910 1750 c0 -5 5 -10 10 -10 6 0 10 5 10 10 0 6 -4 10 -10 10 -5 0
-10 -4 -10 -10z"/>
<path d="M5605 1740 c-3 -5 -1 -10 4 -10 6 0 11 5 11 10 0 6 -2 10 -4 10 -3 0
-8 -4 -11 -10z"/>
<path d="M5235 1710 c-8 -13 4 -32 16 -25 12 8 12 35 0 35 -6 0 -13 -4 -16
-10z"/>
<path d="M4515 1690 c-3 -5 -2 -10 4 -10 5 0 13 5 16 10 3 6 2 10 -4 10 -5 0
-13 -4 -16 -10z"/>
<path d="M5220 1583 c-24 -9 -72 -45 -67 -50 6 -6 96 40 97 50 0 8 -8 8 -30 0z"/>
<path d="M4800 1549 c0 -5 5 -7 10 -4 6 3 10 8 10 11 0 2 -4 4 -10 4 -5 0 -10
-5 -10 -11z"/>
<path d="M3795 1500 c3 -5 15 -15 26 -21 18 -9 19 -9 7 10 -7 12 -19 21 -26
21 -7 0 -10 -4 -7 -10z"/>
<path d="M4778 1493 c-10 -2 -18 -9 -18 -14 0 -14 26 -11 40 6 13 15 9 16 -22
8z"/>
<path d="M5145 1460 c-3 -5 1 -10 9 -10 9 0 16 5 16 10 0 6 -4 10 -9 10 -6 0
-13 -4 -16 -10z"/>
<path d="M4724 1360 c-12 -5 -25 -13 -29 -19 -10 -18 18 -12 45 9 26 21 20 25
-16 10z"/>
<path d="M4800 1340 c-9 -6 -10 -10 -3 -10 6 0 15 5 18 10 8 12 4 12 -15 0z"/>
<path d="M4656 1304 c-22 -22 -20 -25 9 -12 14 6 25 15 25 20 0 13 -17 9 -34
-8z"/>
<path d="M4725 1240 c-4 -6 5 -10 20 -10 15 0 24 4 20 10 -3 6 -12 10 -20 10
-8 0 -17 -4 -20 -10z"/>
<path d="M4930 1212 c0 -12 -16 -27 -45 -42 -45 -23 -58 -40 -31 -40 19 0 96
42 96 52 0 4 8 8 18 8 26 0 34 11 21 27 -17 20 -59 17 -59 -5z"/>
<path d="M4863 1105 c-7 -21 -2 -25 25 -18 18 4 20 8 11 19 -15 18 -28 18 -36
-1z"/>
<path d="M4755 1069 c-4 -6 -5 -13 -2 -16 7 -7 27 6 27 18 0 12 -17 12 -25 -2z"/>
<path d="M4875 1050 c-3 -5 -22 -10 -41 -10 -49 0 -42 -15 9 -17 43 -1 71 12
61 28 -7 12 -21 11 -29 -1z"/>
<path d="M4695 970 c-3 -5 -1 -10 4 -10 6 0 11 5 11 10 0 6 -2 10 -4 10 -3 0
-8 -4 -11 -10z"/>
<path d="M4645 810 c3 -5 8 -10 11 -10 2 0 4 5 4 10 0 6 -5 10 -11 10 -5 0 -7
-4 -4 -10z"/>
<path d="M4680 780 c0 -5 5 -10 10 -10 6 0 10 5 10 10 0 6 -4 10 -10 10 -5 0
-10 -4 -10 -10z"/>
<path d="M4983 769 c-30 -11 -29 -29 1 -29 13 0 26 -6 29 -12 2 -7 4 -1 4 15
1 33 -5 37 -34 26z"/>
<path d="M4853 618 c2 -7 12 -13 22 -13 10 0 20 6 23 13 2 7 -6 12 -23 12 -17
0 -25 -5 -22 -12z"/>
<path d="M4786 484 c-8 -20 14 -28 31 -12 13 14 12 16 -6 21 -11 3 -22 -1 -25
-9z"/>
<path d="M4630 120 c0 -5 7 -10 15 -10 8 0 15 5 15 10 0 6 -7 10 -15 10 -8 0
-15 -4 -15 -10z"/>
</g>
</svg>
